<?xml version="1.0" encoding="UTF-8" standalone="no"?>
<!-- Created with Inkscape (http://www.inkscape.org/) -->

<svg
   xmlns:dc="http://purl.org/dc/elements/1.1/"
   xmlns:cc="http://creativecommons.org/ns#"
   xmlns:rdf="http://www.w3.org/1999/02/22-rdf-syntax-ns#"
   xmlns:svg="http://www.w3.org/2000/svg"
   xmlns="http://www.w3.org/2000/svg"
   xmlns:sodipodi="http://sodipodi.sourceforge.net/DTD/sodipodi-0.dtd"
   xmlns:inkscape="http://www.inkscape.org/namespaces/inkscape"
   width="200"
   height="100"
   viewBox="0 0 200 100"
   id="svg2"
   version="1.1"
   inkscape:version="0.91 r13725"
   sodipodi:docname="cornflakes-large.svg"
   inkscape:export-filename="/home/alex/cornflakes/logo/cornflakes-large.png"
   inkscape:export-xdpi="360"
   inkscape:export-ydpi="360">
  <defs
     id="defs4" />
  <sodipodi:namedview
     id="base"
     pagecolor="#ffffff"
     bordercolor="#666666"
     borderopacity="1.0"
     inkscape:pageopacity="0.0"
     inkscape:pageshadow="2"
     inkscape:zoom="6.1585217"
     inkscape:cx="113.66791"
     inkscape:cy="51.822614"
     inkscape:document-units="px"
     inkscape:current-layer="text4768"
     showgrid="false"
     units="px"
     inkscape:window-width="1841"
     inkscape:window-height="1038"
     inkscape:window-x="79"
     inkscape:window-y="0"
     inkscape:window-maximized="1" />
  <metadata
     id="metadata7">
    <rdf:RDF>
      <cc:Work
         rdf:about="">
        <dc:format>image/svg+xml</dc:format>
        <dc:type
           rdf:resource="http://purl.org/dc/dcmitype/StillImage" />
        <dc:title />
      </cc:Work>
    </rdf:RDF>
  </metadata>
  <g
     inkscape:label="Layer 1"
     inkscape:groupmode="layer"
     id="layer1"
     transform="translate(0,-952.36216)">
    <rect
       style="opacity:1;fill:#ffd900;fill-opacity:1;fill-rule:nonzero;stroke:none;stroke-width:3.54330707;stroke-linejoin:miter;stroke-miterlimit:4;stroke-dasharray:none;stroke-opacity:1"
       id="rect4749"
       width="200"
       height="100"
       x="0"
       y="952.36218" />
    <path
       id="path4711"
       d="m 54.444471,965.28303 c 0.96636,0 1.93272,0 2.900063,0 0.158275,0.0197 0.315565,0.0501 0.474824,0.058 4.00307,0.20349 8.012039,0.32932 12.009209,0.62425 5.28598,0.39126 10.516907,1.20819 15.678038,2.42917 3.889033,0.91917 7.704339,2.0674 11.295504,3.85856 2.042826,1.01944 3.964731,2.21682 5.465891,3.98144 1.00666,1.18362 1.70169,2.52552 1.70267,4.10531 9.1e-4,0.84348 -0.21234,1.68498 -0.30868,2.53043 -0.48859,4.29307 -1.53359,8.44754 -3.17729,12.44182 -6.665239,16.18929 -20.905038,27.22519 -38.231687,29.62589 -5.523883,0.7658 -11.027121,0.5583 -16.468427,-0.643 -11.3535,-2.5068 -20.649432,-8.3511 -27.831757,-17.4858 -5.200453,-6.6131 -8.3826578,-14.12484 -9.6311596,-22.45054 -0.1759692,-1.1728 -0.3735673,-2.34266 -0.5613345,-3.5135 0,-0.22512 0,-0.45124 0,-0.67636 0.1425467,-0.5751 0.2310222,-1.17084 0.4374675,-1.72136 0.6950316,-1.85111 2.0536376,-3.16746 3.6147566,-4.29405 2.396731,-1.7312 5.082484,-2.88729 7.856714,-3.84774 6.528583,-2.2591 13.290154,-3.40439 20.131353,-4.14956 4.740375,-0.51611 9.497461,-0.76974 14.265361,-0.81692 0.126816,-9.2e-4 0.25265,-0.0364 0.378484,-0.0561 z m 1.32813,3.2697 c -4.241956,-0.0256 -9.291016,0.18972 -14.328278,0.67734 -5.196519,0.50235 -10.346836,1.27601 -15.414573,2.54418 -3.454516,0.86412 -6.844149,1.92387 -10.017506,3.57543 -1.49132,0.77566 -2.91186,1.6614 -4.021748,2.95709 -1.287826,1.50214 -1.281927,2.90302 -10e-4,4.41498 0.96341,1.13642 2.178488,1.94943 3.463363,2.66216 2.966913,1.64664 6.161897,2.70541 9.421765,3.58035 6.286746,1.68696 12.705226,2.58154 19.179739,3.07208 3.143865,0.23796 6.30051,0.33528 9.453223,0.41196 5.154248,0.12479 10.305546,-0.03 15.438166,-0.50927 3.05244,-0.28512 6.095049,-0.69898 9.130776,-1.13445 3.909677,-0.56039 7.757422,-1.42842 11.523573,-2.62187 2.852874,-0.90442 5.637916,-1.97401 8.138854,-3.66292 0.992899,-0.67046 1.902241,-1.43136 2.546155,-2.46752 0.65571,-1.05385 0.67635,-2.12835 -0.0472,-3.1183 -0.497438,-0.68029 -1.092192,-1.31928 -1.747899,-1.8472 -2.006458,-1.61125 -4.345184,-2.61792 -6.739943,-3.49187 -5.45507,-1.99073 -11.120516,-3.08095 -16.854776,-3.84872 -6.07342,-0.81399 -12.178298,-1.17772 -19.122721,-1.19345 z"
       inkscape:connector-curvature="0"
       style="fill:#d5331e;fill-opacity:1" />
    <path
       id="path4713"
       d="m 7.7803004,992.80659 c 0.1564763,0.97572 0.3211452,1.95063 0.4677906,2.92799 1.0412643,6.93822 3.69317,13.19812 8.026174,18.70912 5.985426,7.6125 13.731417,12.4829 23.193732,14.572 4.535358,1.0011 9.120689,1.174 13.724044,0.5358 14.439248,-2.0006 26.306056,-11.1975 31.860558,-24.6889 1.370603,-3.3286 2.240644,-6.78989 2.64781,-10.36836 0.08029,-0.70374 0.257244,-1.40583 0.257244,-2.10875 -8.19e-4,-1.31653 -0.579208,-2.4348 -1.418938,-3.42118 -1.250991,-1.47055 -2.853441,-2.46921 -4.555019,-3.31795 -2.992713,-1.49267 -6.173034,-2.44955 -9.41316,-3.21555 -4.301053,-1.01669 -8.660272,-1.6983 -13.065369,-2.02436 -3.330243,-0.2466 -6.671137,-0.35064 -10.007935,-0.52022 -0.132718,-0.007 -0.263798,-0.032 -0.395696,-0.0483 12.992455,0 25.98573,0 38.982281,0 0,16.72167 0,33.44327 0,50.17317 -26.765654,0 -53.534585,0 -80.3035166,0 0,-12.4001 0,-24.8027 0,-37.20447 z"
       display="none"
       inkscape:connector-curvature="0"
       style="display:none;fill:#000000" />
    <path
       id="path4715"
       d="m 46.685573,979.83789 c -0.104864,0.0164 -0.209728,0.0451 -0.314591,0.0467 -3.973354,0.0393 -7.937695,0.25069 -11.888109,0.68079 -5.701148,0.62099 -11.335936,1.57542 -16.776563,3.45805 -2.311918,0.79958 -4.550104,1.76384 -6.547431,3.20654 -1.3009655,0.93967 -2.4331663,2.03583 -3.0123747,3.57847 -0.1728614,0.45878 -0.2457745,0.95524 -0.3645654,1.4345 0,-4.13146 0,-8.26293 0,-12.40423 12.9670591,-8.2e-4 25.9357561,-8.2e-4 38.9036341,-8.2e-4 z"
       display="none"
       inkscape:connector-curvature="0"
       style="display:none;fill:#000000" />
    <path
       id="path4717"
       d="m 47.792377,982.56271 c 5.787169,0.0139 10.874699,0.31705 15.936014,0.99457 4.777855,0.63983 9.499182,1.54837 14.046008,3.20735 1.995689,0.72831 3.945499,1.5664 5.616765,2.90997 0.546439,0.43912 1.042084,0.97245 1.456623,1.53937 0.603786,0.82416 0.585763,1.7196 0.03932,2.59865 -0.536607,0.86349 -1.295231,1.49759 -2.121852,2.05632 -2.084167,1.40665 -4.405097,2.29881 -6.782555,3.05251 -3.139359,0.99539 -6.345896,1.71795 -9.603226,2.18495 -2.529838,0.3629 -5.065411,0.7078 -7.609177,0.9454 -4.277294,0.3998 -8.570154,0.5292 -12.865472,0.4244 -2.627328,-0.064 -5.257934,-0.1442 -7.877889,-0.3433 -5.395568,-0.4088 -10.745258,-1.1543 -15.98353,-2.56014 -2.716627,-0.72913 -5.379183,-1.61146 -7.851674,-2.9837 -1.070757,-0.59396 -2.084167,-1.27148 -2.886211,-2.21853 -1.06748,-1.26 -1.072396,-2.42743 8.19e-4,-3.67924 0.92575,-1.07977 2.108745,-1.81791 3.351544,-2.4643 2.644533,-1.37634 5.4693,-2.25949 8.348138,-2.97961 4.223224,-1.05683 8.516084,-1.70157 12.84581,-2.12021 4.197827,-0.40635 8.405486,-0.58576 11.940541,-0.56446 z"
       display="none"
       inkscape:connector-curvature="0"
       style="display:none;fill:#000000" />
    <g
       style="font-style:normal;font-weight:normal;font-size:17.5px;line-height:125%;font-family:sans-serif;letter-spacing:0px;word-spacing:0px;fill:#d5331e;fill-opacity:1;stroke:none;stroke-width:1px;stroke-linecap:butt;stroke-linejoin:miter;stroke-opacity:1"
       id="text4768">
      <path
         d="m 139.83013,983.98455 q 0.1575,-0.1125 0.2925,-0.135 0.14625,-0.0338 0.225,-0.0338 0.19125,0 0.34875,0.0788 0.1575,0.0788 0.32625,0.3375 l 1.26,1.90125 q 0.0562,0.09 0.10125,0.2025 0.0563,0.1125 0.0563,0.18 0,0.25875 -0.16875,0.4275 -0.1575,0.1575 -0.34875,0.28125 -0.9225,0.64125 -2.025,1.035 -1.09125,0.3825 -2.3175,0.3825 -1.0125,0 -1.9575,-0.25875 -0.93375,-0.25875 -1.74375,-0.73125 -0.81,-0.48375 -1.485,-1.1475 -0.675,-0.675 -1.1475,-1.49625 -0.4725,-0.82125 -0.7425,-1.76625 -0.25875,-0.95625 -0.25875,-1.99125 0,-1.035 0.25875,-1.99125 0.27,-0.95625 0.7425,-1.76625 0.4725,-0.82125 1.1475,-1.485 0.675,-0.675 1.485,-1.1475 0.81,-0.4725 1.74375,-0.73125 0.945,-0.25875 1.9575,-0.25875 1.22625,0 2.26125,0.32625 1.04625,0.32625 1.9575,0.9675 l -0.0337,-0.0337 q 0.2475,0.14625 0.39375,0.34875 0.14625,0.19125 0.14625,0.48375 0,0.2025 -0.135,0.41625 l -1.00125,1.69875 q -0.315,0.55125 -0.765,0.55125 -0.10125,0 -0.2475,-0.045 -0.14625,-0.0563 -0.32625,-0.18 -0.495,-0.32625 -1.06875,-0.52875 -0.5625,-0.21375 -1.20375,-0.21375 -0.70875,0 -1.305,0.2925 -0.59625,0.28125 -1.02375,0.77625 -0.41625,0.495 -0.6525,1.1475 -0.23625,0.6525 -0.23625,1.3725 0,0.7425 0.23625,1.395 0.23625,0.64125 0.6525,1.11375 0.4275,0.4725 1.02375,0.75375 0.59625,0.27 1.305,0.27 0.64125,0 1.20375,-0.225 0.5625,-0.225 1.06875,-0.57375 z"
         style="font-style:normal;font-variant:normal;font-weight:normal;font-stretch:normal;font-size:22.5px;font-family:COCOGOOSE;-inkscape-font-specification:COCOGOOSE;text-align:end;text-anchor:end;fill:#d5331e;fill-opacity:1"
         id="path4903" />
      <path
         d="m 143.67042,981.2508 q 0,-1.035 0.25875,-1.99125 0.27,-0.95625 0.7425,-1.76625 0.48375,-0.82125 1.1475,-1.485 0.675,-0.675 1.49625,-1.1475 0.82125,-0.4725 1.76625,-0.73125 0.95625,-0.25875 1.99125,-0.25875 1.53,0 2.86875,0.57375 1.35,0.5625 2.34,1.56375 1.00125,0.99 1.575,2.34 0.585,1.33875 0.585,2.9025 0,1.035 -0.27,1.99125 -0.25875,0.945 -0.7425,1.76625 -0.4725,0.82125 -1.1475,1.49625 -0.66375,0.66375 -1.485,1.1475 -0.82125,0.4725 -1.76625,0.73125 -0.93375,0.25875 -1.9575,0.25875 -1.035,0 -1.99125,-0.25875 -0.945,-0.25875 -1.76625,-0.73125 -0.82125,-0.48375 -1.49625,-1.1475 -0.66375,-0.675 -1.1475,-1.49625 -0.4725,-0.82125 -0.7425,-1.76625 -0.25875,-0.95625 -0.25875,-1.99125 z m 4.10625,0 q 0,0.7425 0.225,1.395 0.23625,0.64125 0.6525,1.11375 0.4275,0.4725 1.02375,0.75375 0.6075,0.27 1.36125,0.27 0.73125,0 1.31625,-0.27 0.59625,-0.28125 1.00125,-0.75375 0.41625,-0.4725 0.63,-1.11375 0.225,-0.6525 0.225,-1.395 0,-0.72 -0.225,-1.3725 -0.21375,-0.6525 -0.63,-1.1475 -0.405,-0.495 -1.00125,-0.77625 -0.585,-0.2925 -1.31625,-0.2925 -0.75375,0 -1.36125,0.2925 -0.59625,0.28125 -1.02375,0.77625 -0.41625,0.495 -0.6525,1.1475 -0.225,0.6525 -0.225,1.3725 z"
         style="font-style:normal;font-variant:normal;font-weight:normal;font-stretch:normal;font-size:22.5px;font-family:COCOGOOSE;-inkscape-font-specification:COCOGOOSE;text-align:end;text-anchor:end;fill:#d5331e;fill-opacity:1"
         id="path4905" />
      <path
         d="m 160.69853,974.9283 q 0,-0.19125 0.0787,-0.36 0.09,-0.18 0.21375,-0.28125 0.2925,-0.19125 0.6075,-0.19125 l 1.69875,0 q 0.21375,0 0.3375,0.0787 0.12375,0.0788 0.2025,0.2025 0.09,0.12375 0.14625,0.28125 0.0675,0.1575 0.1575,0.315 0.0225,0.045 0.09,0.225 0.0675,0.16875 0.14625,0.3825 0.0787,0.2025 0.14625,0.39375 0.0788,0.18 0.10125,0.23625 0.3375,-0.37125 0.64125,-0.77625 0.315,-0.41625 0.66375,-0.765 0.34875,-0.34875 0.77625,-0.57375 0.4275,-0.225 1.0125,-0.225 0.6075,0 1.08,0.09 0.48375,0.09 0.91125,0.27 0.4275,0.16875 0.84375,0.43875 0.4275,0.27 0.9225,0.63 0.77625,0.41625 0.2925,1.2375 l -1.02375,1.74375 q -0.225,0.3375 -0.55125,0.41625 -0.32625,0.0788 -0.70875,-0.10125 -0.48375,-0.4725 -0.99,-0.6975 -0.495,-0.23625 -1.13625,-0.23625 -0.43875,0 -0.77625,0.12375 -0.32625,0.12375 -0.59625,0.34875 -0.27,0.225 -0.50625,0.54 -0.23625,0.315 -0.4725,0.6975 l 0,8.145 q 0,0.4275 -0.21375,0.6525 -0.2025,0.21375 -0.68625,0.21375 l -2.53125,0 q -0.8775,0 -0.8775,-0.86625 l 0,-12.58875 z"
         style="font-style:normal;font-variant:normal;font-weight:normal;font-stretch:normal;font-size:22.5px;font-family:COCOGOOSE;-inkscape-font-specification:COCOGOOSE;text-align:end;text-anchor:end;fill:#d5331e;fill-opacity:1"
         id="path4907" />
      <path
         d="m 173.95489,974.28705 q 0.14625,-0.12375 0.30375,-0.1575 0.16875,-0.0337 0.315,-0.0337 l 1.69875,0 q 0.2025,0 0.34875,0.0787 0.14625,0.0675 0.2475,0.19125 0.10125,0.12375 0.1575,0.28125 0.0675,0.1575 0.12375,0.32625 l 0.34875,1.44 q 0.16875,-0.34875 0.48375,-0.7875 0.32625,-0.45 0.82125,-0.8325 0.495,-0.39375 1.17,-0.6525 0.68625,-0.27 1.58625,-0.27 1.2825,0 2.32875,0.495 1.04625,0.495 1.7775,1.35 0.7425,0.855 1.1475,2.0025 0.405,1.13625 0.405,2.43 l 0,7.36875 q 0,0.4275 -0.19125,0.6525 -0.18,0.21375 -0.585,0.21375 l -2.59875,0 q -0.48375,0 -0.66375,-0.1575 -0.18,-0.16875 -0.18,-0.64125 l 0,-7.32375 q 0,-0.48375 -0.225,-0.91125 -0.21375,-0.43875 -0.57375,-0.765 -0.36,-0.3375 -0.82125,-0.52875 -0.45,-0.19125 -0.9225,-0.19125 -0.405,0 -0.8325,0.18 -0.41625,0.18 -0.77625,0.50625 -0.34875,0.315 -0.59625,0.75375 -0.23625,0.4275 -0.27,0.93375 l 0,7.3125 q 0,0.19125 -0.0788,0.3825 -0.0675,0.19125 -0.21375,0.2925 -0.14625,0.09 -0.28125,0.12375 -0.12375,0.0337 -0.2925,0.0337 l -2.5425,0 q -0.48375,0 -0.6975,-0.23625 -0.21375,-0.23625 -0.21375,-0.63 l 0,-12.58875 q 0,-0.21375 0.09,-0.39375 0.10125,-0.18 0.27,-0.28125 l -0.0675,0.0338 z"
         style="font-style:normal;font-variant:normal;font-weight:normal;font-stretch:normal;font-size:22.5px;font-family:COCOGOOSE;-inkscape-font-specification:COCOGOOSE;text-align:end;text-anchor:end;fill:#d5331e;fill-opacity:1"
         id="path4909" />
      <path
         d="m 112.26974,1002.4233 q 0,-1.0462 0.45,-1.9687 0.45,-0.92255 1.20375,-1.6088 0.75375,-0.6975 1.7325,-1.09125 0.97875,-0.405 2.0475,-0.405 l 0.225,0 q 0.3825,0 0.585,0.23625 0.21375,0.225 0.21375,0.63 l 0,2.1488 q 0,0.4162 -0.225,0.6975 -0.21375,0.27 -0.57375,0.27 l -0.225,0 q -0.23625,0 -0.45,0.09 -0.21375,0.079 -0.3825,0.225 -0.16875,0.1462 -0.27,0.3487 -0.10125,0.1913 -0.10125,0.4275 l 0,1.2938 1.76625,0 q 0.3825,0 0.585,0.2137 0.21375,0.2025 0.21375,0.6525 l 0,2.0588 q 0,0.4837 -0.21375,0.7087 -0.2025,0.225 -0.585,0.225 l -1.76625,0 0,8.0663 q 0,0.4275 -0.2925,0.6525 -0.28125,0.2137 -0.61875,0.2137 l -2.43,0 q -0.405,0 -0.6525,-0.2475 -0.23625,-0.2587 -0.23625,-0.6187 l 0,-8.0663 -1.15875,0 q -0.39375,0 -0.64125,-0.225 -0.23625,-0.225 -0.23625,-0.7087 l 0,-2.0588 q 0,-0.45 0.23625,-0.6525 0.2475,-0.2137 0.64125,-0.2137 l 1.15875,0 0,-1.2938 z"
         style="font-style:normal;font-variant:normal;font-weight:normal;font-stretch:normal;font-size:22.5px;font-family:COCOGOOSE;-inkscape-font-specification:COCOGOOSE;text-align:end;text-anchor:end;fill:#d5331e;fill-opacity:1"
         id="path4911" />
      <path
         d="m 120.66435,998.83455 q 0,-0.36 0.18,-0.6075 0.18,-0.2475 0.61875,-0.2475 l 2.75625,0 q 0.1125,0 0.23625,0.0675 0.12375,0.0562 0.225,0.16875 0.1125,0.1125 0.18,0.27 0.0787,0.1575 0.0787,0.34875 l 0,16.80755 q 0,0.4275 -0.2475,0.6525 -0.23625,0.2137 -0.61875,0.2137 l -2.61,0 q -0.43875,0 -0.61875,-0.2137 -0.18,-0.225 -0.18,-0.6525 l 0,-16.80755 z"
         style="font-style:normal;font-variant:normal;font-weight:normal;font-stretch:normal;font-size:22.5px;font-family:COCOGOOSE;-inkscape-font-specification:COCOGOOSE;text-align:end;text-anchor:end;fill:#d5331e;fill-opacity:1"
         id="path4913" />
      <path
         d="m 142.3554,1015.6758 q 0,0.1913 -0.0675,0.3713 -0.0675,0.1687 -0.225,0.27 -0.12375,0.1237 -0.2925,0.1575 -0.16875,0.034 -0.2925,0.034 l -2.21625,0 q -0.23625,0 -0.3825,-0.056 -0.14625,-0.067 -0.23625,-0.18 -0.09,-0.1125 -0.1575,-0.27 -0.0563,-0.1688 -0.12375,-0.36 l -0.32625,-0.8438 q -0.30375,0.3038 -0.66375,0.6525 -0.36,0.3375 -0.79875,0.63 -0.4275,0.2925 -0.93375,0.4838 -0.50625,0.2025 -1.08,0.2025 -1.02375,0 -1.96875,-0.2588 -0.93375,-0.2587 -1.755,-0.7312 -0.81,-0.4838 -1.47375,-1.1475 -0.66375,-0.675 -1.1475,-1.4963 -0.4725,-0.8212 -0.73125,-1.7662 -0.25875,-0.9563 -0.25875,-1.9913 0,-1.5637 0.57375,-2.9025 0.57375,-1.35 1.56375,-2.34 0.99,-1.0012 2.32875,-1.5637 1.33875,-0.5738 2.86875,-0.5738 0.6975,0 1.2825,0.2138 0.585,0.2025 1.0575,0.54 0.48375,0.3375 0.86625,0.765 0.39375,0.4275 0.6975,0.8662 l 0.43875,-1.3612 q 0.1125,-0.2813 0.18,-0.45 0.0788,-0.18 0.1575,-0.2588 0.09,-0.09 0.21375,-0.1125 0.12375,-0.034 0.34875,-0.034 l 1.67625,0 q 0.12375,0 0.2925,0.034 0.16875,0.034 0.2925,0.1575 0.1575,0.1238 0.225,0.2813 0.0675,0.1575 0.0675,0.36 l 0,12.6787 z m -11.08125,-6.3 q 0,0.7425 0.225,1.395 0.23625,0.6413 0.66375,1.1138 0.4275,0.4725 1.02375,0.7537 0.6075,0.27 1.33875,0.27 0.75375,0 1.395,-0.27 0.6525,-0.2812 1.125,-0.7537 0.48375,-0.4725 0.75375,-1.1138 0.27,-0.6525 0.27,-1.395 0,-0.72 -0.27,-1.3725 -0.27,-0.6525 -0.75375,-1.1475 -0.4725,-0.495 -1.125,-0.7762 -0.64125,-0.2925 -1.395,-0.2925 -0.73125,0 -1.33875,0.2925 -0.59625,0.2812 -1.02375,0.7762 -0.4275,0.495 -0.66375,1.1475 -0.225,0.6525 -0.225,1.3725 z"
         style="font-style:normal;font-variant:normal;font-weight:normal;font-stretch:normal;font-size:22.5px;font-family:COCOGOOSE;-inkscape-font-specification:COCOGOOSE;text-align:end;text-anchor:end;fill:#d5331e;fill-opacity:1"
         id="path4915" />
      <path
         d="m 145.05399,998.83455 q 0,-0.19125 0.0112,-0.34875 0.0113,-0.1575 0.09,-0.27 0.09,-0.1125 0.27,-0.16875 0.18,-0.0675 0.50625,-0.0675 l 2.68875,0 q 0.21375,0 0.34875,0.0788 0.14625,0.0675 0.225,0.18 0.09,0.1125 0.1125,0.2475 0.0337,0.12375 0.0337,0.23625 l 0,8.32505 4.05,-4.5 q 0.2925,-0.3263 0.6975,-0.3263 l 3.45375,0 q 0.61875,0 0.61875,0.4838 0,0.1237 -0.045,0.2025 -0.0337,0.079 -0.1575,0.225 l -4.62375,4.8825 5.81625,7.47 -0.0225,0 q 0.14625,0.1462 0.2025,0.3037 0.0675,0.1463 0.0675,0.27 0,0.2588 -0.14625,0.36 -0.135,0.09 -0.41625,0.09 l -3.8025,0 q -0.19125,0 -0.36,-0.1462 -0.16875,-0.1463 -0.37125,-0.4388 l -3.67875,-5.2087 -1.24875,1.2937 0,3.6338 q 0,0.09 -0.0337,0.2362 -0.0225,0.1463 -0.1125,0.2925 -0.0788,0.135 -0.225,0.2363 -0.14625,0.1012 -0.3825,0.1012 l -2.82375,0 q -0.2025,0 -0.34875,-0.1012 -0.14625,-0.1125 -0.23625,-0.2475 -0.0787,-0.135 -0.12375,-0.2475 -0.0337,-0.1238 -0.0337,-0.1463 l 0,-16.93125 z"
         style="font-style:normal;font-variant:normal;font-weight:normal;font-stretch:normal;font-size:22.5px;font-family:COCOGOOSE;-inkscape-font-specification:COCOGOOSE;text-align:end;text-anchor:end;fill:#d5331e;fill-opacity:1"
         id="path4917" />
      <path
         d="m 172.9322,1014.7983 q -0.99,0.9113 -2.2275,1.4288 -1.2375,0.5062 -2.62125,0.5062 -1.54125,0 -2.91375,-0.5625 -1.3725,-0.5625 -2.4075,-1.5525 -1.035,-1.0012 -1.6425,-2.3512 -0.6075,-1.35 -0.6075,-2.9363 0,-0.99 0.23625,-1.9125 0.2475,-0.9337 0.68625,-1.7437 0.45,-0.81 1.08,-1.485 0.64125,-0.6863 1.42875,-1.17 0.7875,-0.4838 1.71,-0.7538 0.9225,-0.27 1.94625,-0.27 0.93375,0 1.81125,0.2475 0.8775,0.2475 1.6425,0.6975 0.77625,0.45 1.4175,1.08 0.64125,0.63 1.1025,1.3838 0.46125,0.7425 0.70875,1.5975 0.25875,0.8437 0.25875,1.7437 0,0.585 -0.0225,0.9563 -0.0112,0.3712 -0.16875,0.5962 -0.1575,0.2138 -0.52875,0.3038 -0.36,0.079 -1.06875,0.079 l -8.1,0 q 0.1125,0.72 0.45,1.2038 0.34875,0.4837 0.79875,0.7762 0.45,0.2813 0.95625,0.405 0.50625,0.1238 0.95625,0.1238 0.405,0 0.8325,-0.079 0.4275,-0.09 0.82125,-0.225 0.405,-0.1462 0.73125,-0.3262 0.3375,-0.1913 0.54,-0.3938 0.18,-0.1462 0.30375,-0.2137 0.135,-0.079 0.28125,-0.079 0.14625,0 0.2925,0.1013 0.1575,0.1012 0.34875,0.2925 l 1.1925,1.35 q 0.12375,0.1462 0.1575,0.27 0.0338,0.1125 0.0338,0.2362 0,0.225 -0.12375,0.3938 -0.12375,0.1575 -0.2925,0.2812 z m -5.41125,-9.3712 q -0.43875,0 -0.855,0.18 -0.405,0.1687 -0.765,0.4612 -0.36,0.2925 -0.6525,0.6638 -0.28125,0.3712 -0.46125,0.7537 l 5.74875,0 q -0.23625,-0.4387 -0.5175,-0.81 -0.27,-0.3712 -0.63,-0.6525 -0.34875,-0.2812 -0.81,-0.4387 -0.45,-0.1575 -1.0575,-0.1575 z"
         style="font-style:normal;font-variant:normal;font-weight:normal;font-stretch:normal;font-size:22.5px;font-family:COCOGOOSE;-inkscape-font-specification:COCOGOOSE;text-align:end;text-anchor:end;fill:#d5331e;fill-opacity:1"
         id="path4919" />
      <path
         d="m 179.05185,1012.0646 q 0.30375,0.3037 0.6525,0.5175 0.36,0.2025 0.68625,0.3375 0.32625,0.1237 0.57375,0.18 0.2475,0.056 0.3375,0.056 0.21375,0 0.54,-0.011 0.3375,-0.022 0.64125,-0.1013 0.30375,-0.09 0.5175,-0.2812 0.225,-0.1913 0.225,-0.54 0,-0.315 -0.12375,-0.495 -0.12375,-0.1913 -0.36,-0.315 -0.23625,-0.135 -0.585,-0.2363 -0.3375,-0.1012 -0.765,-0.2362 -1.35,-0.36 -2.2275,-0.8663 -0.8775,-0.5062 -1.395,-1.125 -0.50625,-0.63 -0.70875,-1.35 -0.2025,-0.72 -0.2025,-1.5187 0,-0.9338 0.37125,-1.6988 0.37125,-0.765 1.0575,-1.305 0.68625,-0.5512 1.6425,-0.8437 0.95625,-0.3038 2.12625,-0.3038 0.70875,0 1.3275,0.1238 0.61875,0.1125 1.18125,0.3712 0.5625,0.2475 1.09125,0.6525 0.54,0.3938 1.06875,0.945 0.19125,0.225 0.19125,0.4275 0.0112,0.1913 -0.2475,0.4163 -0.43875,0.36 -0.84375,0.7087 -0.39375,0.3488 -0.82125,0.7763 -0.135,0.1125 -0.27,0.1462 -0.135,0.022 -0.25875,-0.011 -0.12375,-0.034 -0.23625,-0.1125 -0.1125,-0.079 -0.2025,-0.1913 -0.39375,-0.4387 -0.9,-0.585 -0.50625,-0.1575 -0.945,-0.1575 -0.55125,0 -0.8775,0.1913 -0.32625,0.1912 -0.30375,0.585 0.0225,0.2925 0.21375,0.4612 0.2025,0.1575 0.48375,0.2588 0.2925,0.1012 0.6075,0.1687 0.32625,0.056 0.59625,0.135 1.0125,0.3263 1.85625,0.7088 0.84375,0.3825 1.4625,0.945 0.61875,0.5512 0.95625,1.3275 0.34875,0.7762 0.34875,1.89 0,1.1137 -0.45,1.9912 -0.43875,0.8775 -1.215,1.4738 -0.77625,0.5962 -1.845,0.9112 -1.0575,0.315 -2.28375,0.315 -0.6975,0 -1.4175,-0.1237 -0.72,-0.1238 -1.395,-0.3938 -0.675,-0.2812 -1.2825,-0.7087 -0.6075,-0.4388 -1.08,-1.0575 -0.12375,-0.1575 -0.19125,-0.3263 -0.0563,-0.18 -0.0563,-0.3487 0.0113,-0.1688 0.0675,-0.3038 0.0675,-0.1462 0.2025,-0.2475 l 1.45125,-1.4512 q 0.27,-0.225 0.4725,-0.1575 0.21375,0.067 0.54,0.3825 z"
         style="font-style:normal;font-variant:normal;font-weight:normal;font-stretch:normal;font-size:22.5px;font-family:COCOGOOSE;-inkscape-font-specification:COCOGOOSE;text-align:end;text-anchor:end;fill:#d5331e;fill-opacity:1"
         id="path4921" />
    </g>
    <g
       style="font-style:normal;font-weight:normal;font-size:22.5px;line-height:125%;font-family:sans-serif;letter-spacing:0px;word-spacing:0px;fill:#d5331e;fill-opacity:1;stroke:none;stroke-width:1px;stroke-linecap:butt;stroke-linejoin:miter;stroke-opacity:1"
       id="text4826">
      <path
         d="m 15.793864,1037.5611 q 0,0.058 -0.02062,0.1134 -0.02063,0.052 -0.06875,0.082 -0.03781,0.038 -0.08938,0.048 -0.05156,0.01 -0.08938,0.01 l -0.677187,0 q -0.07219,0 -0.116875,-0.017 -0.04469,-0.021 -0.07219,-0.055 -0.0275,-0.034 -0.04813,-0.082 -0.01719,-0.051 -0.03781,-0.11 l -0.09969,-0.2578 q -0.09281,0.093 -0.202812,0.1994 -0.11,0.1031 -0.244063,0.1925 -0.130625,0.089 -0.285312,0.1478 -0.154688,0.062 -0.33,0.062 -0.312813,0 -0.601563,-0.079 -0.285312,-0.079 -0.53625,-0.2234 -0.2475,-0.1478 -0.450312,-0.3506 -0.202813,-0.2063 -0.350625,-0.4572 -0.144375,-0.251 -0.223438,-0.5397 -0.07906,-0.2922 -0.07906,-0.6084 0,-0.4779 0.175312,-0.8869 0.175313,-0.4125 0.477813,-0.715 0.3025,-0.306 0.711562,-0.4778 0.409063,-0.1753 0.876563,-0.1753 0.213125,0 0.391875,0.065 0.17875,0.062 0.323125,0.165 0.147812,0.1031 0.264687,0.2337 0.120313,0.1306 0.213125,0.2647 l 0.134063,-0.4159 q 0.03437,-0.086 0.055,-0.1375 0.02406,-0.055 0.04813,-0.079 0.0275,-0.027 0.06531,-0.034 0.03781,-0.01 0.106563,-0.01 l 0.512187,0 q 0.03781,0 0.08938,0.01 0.05156,0.01 0.08938,0.048 0.04812,0.038 0.06875,0.086 0.02062,0.048 0.02062,0.11 l 0,3.8741 z m -3.385937,-1.925 q 0,0.2268 0.06875,0.4262 0.07219,0.1959 0.202812,0.3403 0.130625,0.1444 0.312813,0.2303 0.185625,0.082 0.409062,0.082 0.230313,0 0.42625,-0.082 0.199375,-0.086 0.34375,-0.2303 0.147813,-0.1444 0.230313,-0.3403 0.0825,-0.1994 0.0825,-0.4262 0,-0.22 -0.0825,-0.4194 -0.0825,-0.1994 -0.230313,-0.3506 -0.144375,-0.1513 -0.34375,-0.2372 -0.195937,-0.089 -0.42625,-0.089 -0.223437,0 -0.409062,0.089 -0.182188,0.086 -0.312813,0.2372 -0.130625,0.1512 -0.202812,0.3506 -0.06875,0.1994 -0.06875,0.4194 z"
         style="font-style:normal;font-variant:normal;font-weight:normal;font-stretch:normal;font-size:6.875px;font-family:COCOGOOSE;-inkscape-font-specification:COCOGOOSE;fill:#d5331e;fill-opacity:1"
         id="path4924" />
      <path
         d="m 19.196237,1033.5117 q 0,-0.3197 0.1375,-0.6016 0.1375,-0.2819 0.367813,-0.4915 0.230312,-0.2132 0.529375,-0.3335 0.299062,-0.1237 0.625625,-0.1237 l 0.06875,0 q 0.116875,0 0.17875,0.072 0.06531,0.069 0.06531,0.1925 l 0,0.6565 q 0,0.1272 -0.06875,0.2131 -0.06531,0.082 -0.175312,0.082 l -0.06875,0 q -0.07219,0 -0.1375,0.027 -0.06531,0.024 -0.116875,0.069 -0.05156,0.045 -0.0825,0.1066 -0.03094,0.058 -0.03094,0.1306 l 0,0.3953 0.539688,0 q 0.116875,0 0.17875,0.065 0.06531,0.062 0.06531,0.1994 l 0,0.629 q 0,0.1479 -0.06531,0.2166 -0.06188,0.069 -0.17875,0.069 l -0.539688,0 0,2.4646 q 0,0.1307 -0.08938,0.1994 -0.08594,0.065 -0.189062,0.065 l -0.7425,0 q -0.12375,0 -0.199375,-0.076 -0.07219,-0.079 -0.07219,-0.1891 l 0,-2.4646 -0.354062,0 q -0.120313,0 -0.195938,-0.069 -0.07219,-0.069 -0.07219,-0.2166 l 0,-0.629 q 0,-0.1375 0.07219,-0.1994 0.07563,-0.065 0.195938,-0.065 l 0.354062,0 0,-0.3953 z"
         style="font-style:normal;font-variant:normal;font-weight:normal;font-stretch:normal;font-size:6.875px;font-family:COCOGOOSE;-inkscape-font-specification:COCOGOOSE;fill:#d5331e;fill-opacity:1"
         id="path4926" />
      <path
         d="m 25.814069,1037.757 q -0.04469,0.038 -0.09625,0.048 -0.04812,0.01 -0.09281,0.01 l -0.519063,0 q -0.06188,0 -0.106562,-0.021 -0.04469,-0.024 -0.07563,-0.062 -0.03094,-0.038 -0.05156,-0.086 -0.02062,-0.048 -0.03438,-0.1 l -0.106562,-0.44 q -0.05156,0.1066 -0.15125,0.2441 -0.09625,0.134 -0.2475,0.2543 -0.15125,0.1169 -0.360938,0.1994 -0.209687,0.079 -0.48125,0.079 -0.391875,0 -0.711562,-0.1513 -0.319688,-0.1512 -0.546563,-0.4125 -0.223437,-0.2612 -0.347187,-0.6084 -0.12375,-0.3506 -0.12375,-0.7459 l 0,-2.2516 q 0,-0.1306 0.055,-0.1959 0.05844,-0.069 0.182187,-0.069 l 0.794063,0 q 0.147812,0 0.202812,0.052 0.055,0.048 0.055,0.1925 l 0,2.2378 q 0,0.1478 0.06531,0.2819 0.06875,0.1306 0.17875,0.2337 0.11,0.1 0.2475,0.1581 0.140937,0.059 0.285312,0.059 0.12375,0 0.254375,-0.059 0.134063,-0.058 0.244063,-0.1547 0.113437,-0.1 0.185625,-0.2303 0.07219,-0.134 0.07219,-0.2818 l 0,-2.2344 q 0,-0.058 0.02062,-0.1169 0.02406,-0.058 0.06875,-0.089 0.04469,-0.028 0.0825,-0.038 0.04125,-0.01 0.09281,-0.01 l 0.776875,0 q 0.147812,0 0.213125,0.072 0.06531,0.072 0.06531,0.1925 l 0,3.8466 q 0,0.065 -0.03094,0.1203 -0.0275,0.055 -0.07906,0.086 l 0.02062,-0.01 z"
         style="font-style:normal;font-variant:normal;font-weight:normal;font-stretch:normal;font-size:6.875px;font-family:COCOGOOSE;-inkscape-font-specification:COCOGOOSE;fill:#d5331e;fill-opacity:1"
         id="path4928" />
      <path
         d="m 26.818894,1033.5082 q 0.04469,-0.038 0.09281,-0.048 0.05156,-0.01 0.09625,-0.01 l 0.519063,0 q 0.06188,0 0.106562,0.024 0.04469,0.021 0.07562,0.058 0.03094,0.038 0.04813,0.086 0.02062,0.048 0.03781,0.1 l 0.106562,0.44 q 0.05156,-0.1065 0.147813,-0.2406 0.09969,-0.1375 0.250937,-0.2544 0.15125,-0.1203 0.3575,-0.1993 0.209688,-0.082 0.484688,-0.082 0.391875,0 0.711562,0.1512 0.319688,0.1513 0.543125,0.4125 0.226875,0.2613 0.350625,0.6119 0.12375,0.3472 0.12375,0.7425 l 0,2.2515 q 0,0.1307 -0.05844,0.1994 -0.055,0.065 -0.17875,0.065 l -0.794063,0 q -0.147812,0 -0.202812,-0.048 -0.055,-0.052 -0.055,-0.1959 l 0,-2.2378 q 0,-0.1479 -0.06875,-0.2785 -0.06531,-0.134 -0.175313,-0.2337 -0.11,-0.1032 -0.250937,-0.1616 -0.1375,-0.058 -0.281875,-0.058 -0.12375,0 -0.254375,0.055 -0.127188,0.055 -0.237188,0.1547 -0.106562,0.096 -0.182187,0.2303 -0.07219,0.1306 -0.0825,0.2853 l 0,2.2344 q 0,0.058 -0.02406,0.1168 -0.02062,0.059 -0.06531,0.089 -0.04469,0.027 -0.08594,0.038 -0.03781,0.01 -0.08938,0.01 l -0.776875,0 q -0.147812,0 -0.213125,-0.072 -0.06531,-0.072 -0.06531,-0.1925 l 0,-3.8465 q 0,-0.065 0.0275,-0.1203 0.03094,-0.055 0.0825,-0.086 l -0.02062,0.01 z"
         style="font-style:normal;font-variant:normal;font-weight:normal;font-stretch:normal;font-size:6.875px;font-family:COCOGOOSE;-inkscape-font-specification:COCOGOOSE;fill:#d5331e;fill-opacity:1"
         id="path4930" />
      <path
         d="m 34.432043,1036.4714 q 0.04812,-0.034 0.08937,-0.041 0.04469,-0.01 0.06875,-0.01 0.05844,0 0.106562,0.024 0.04812,0.024 0.09969,0.1031 l 0.385,0.5809 q 0.01719,0.028 0.03094,0.062 0.01719,0.034 0.01719,0.055 0,0.079 -0.05156,0.1306 -0.04812,0.048 -0.106562,0.086 -0.281875,0.1959 -0.61875,0.3162 -0.333438,0.1169 -0.708125,0.1169 -0.309375,0 -0.598125,-0.079 -0.285313,-0.079 -0.532813,-0.2234 -0.2475,-0.1478 -0.45375,-0.3506 -0.20625,-0.2063 -0.350625,-0.4572 -0.144375,-0.251 -0.226875,-0.5397 -0.07906,-0.2922 -0.07906,-0.6084 0,-0.3163 0.07906,-0.6085 0.0825,-0.2922 0.226875,-0.5397 0.144375,-0.2509 0.350625,-0.4537 0.20625,-0.2063 0.45375,-0.3506 0.2475,-0.1444 0.532813,-0.2235 0.28875,-0.079 0.598125,-0.079 0.374687,0 0.690937,0.1 0.319688,0.1 0.598125,0.2957 l -0.01031,-0.01 q 0.07562,0.045 0.120312,0.1065 0.04469,0.059 0.04469,0.1478 0,0.062 -0.04125,0.1272 l -0.305938,0.5191 q -0.09625,0.1684 -0.23375,0.1684 -0.03094,0 -0.07562,-0.014 -0.04469,-0.017 -0.09969,-0.055 -0.15125,-0.1 -0.326563,-0.1616 -0.171875,-0.065 -0.367812,-0.065 -0.216563,0 -0.39875,0.089 -0.182188,0.086 -0.312813,0.2372 -0.127187,0.1512 -0.199375,0.3506 -0.07219,0.1994 -0.07219,0.4194 0,0.2268 0.07219,0.4262 0.07219,0.1959 0.199375,0.3403 0.130625,0.1444 0.312813,0.2303 0.182187,0.082 0.39875,0.082 0.195937,0 0.367812,-0.069 0.171875,-0.069 0.326563,-0.1753 z"
         style="font-style:normal;font-variant:normal;font-weight:normal;font-stretch:normal;font-size:6.875px;font-family:COCOGOOSE;-inkscape-font-specification:COCOGOOSE;fill:#d5331e;fill-opacity:1"
         id="path4932" />
      <path
         d="m 36.151921,1032.7692 q 0,-0.1066 0.06875,-0.1581 0.07219,-0.055 0.202812,-0.1032 l 0.780313,-0.2715 q 0.01719,-0 0.03094,-0 0.01719,0 0.03094,0 0.127187,0 0.168437,0.076 0.04469,0.072 0.04469,0.1925 l -0.0034,1.0828 0.574063,0 q 0.11,0 0.17875,0.065 0.06875,0.065 0.06875,0.1959 l 0,0.6635 q 0,0.1443 -0.06875,0.2131 -0.06875,0.065 -0.17875,0.065 l -0.574063,0 0.0034,2.7637 q 0,0.1307 -0.07563,0.1994 -0.07563,0.065 -0.209688,0.065 l -0.776875,0 q -0.264687,0 -0.264687,-0.2647 l -0.0034,-2.7637 -0.250937,0 q -0.264688,0 -0.264688,-0.2784 l 0,-0.6635 q 0,-0.2612 0.264688,-0.2612 l 0.250937,0 0.0034,-0.8147 z"
         style="font-style:normal;font-variant:normal;font-weight:normal;font-stretch:normal;font-size:6.875px;font-family:COCOGOOSE;-inkscape-font-specification:COCOGOOSE;fill:#d5331e;fill-opacity:1"
         id="path4934" />
      <path
         d="m 38.837897,1033.7179 q 0,-0.11 0.06188,-0.189 0.06188,-0.079 0.1925,-0.079 l 0.787188,0 q 0.04125,0 0.08937,0.021 0.04812,0.017 0.08938,0.055 0.04125,0.034 0.06875,0.082 0.03094,0.048 0.03094,0.11 l 0,3.8328 q 0,0.1307 -0.07219,0.1994 -0.07219,0.065 -0.20625,0.065 l -0.787188,0 q -0.254375,0 -0.254375,-0.2647 l 0,-3.8328 z m 0,-1.7393 q 0,-0.1444 0.06188,-0.2029 0.06188,-0.062 0.1925,-0.062 l 0.7975,0 q 0.120313,0 0.1925,0.062 0.07562,0.059 0.07562,0.2029 l 0,0.6703 q 0,0.041 -0.02062,0.089 -0.01719,0.048 -0.05156,0.093 -0.03437,0.045 -0.08594,0.076 -0.04812,0.027 -0.11,0.027 l -0.7975,0 q -0.254375,0 -0.254375,-0.2853 l 0,-0.6703 z"
         style="font-style:normal;font-variant:normal;font-weight:normal;font-stretch:normal;font-size:6.875px;font-family:COCOGOOSE;-inkscape-font-specification:COCOGOOSE;fill:#d5331e;fill-opacity:1"
         id="path4936" />
      <path
         d="m 40.842282,1035.6361 q 0,-0.3163 0.07906,-0.6085 0.0825,-0.2922 0.226875,-0.5397 0.147812,-0.2509 0.350625,-0.4537 0.20625,-0.2063 0.457187,-0.3506 0.250938,-0.1444 0.539688,-0.2235 0.292187,-0.079 0.608437,-0.079 0.4675,0 0.876563,0.1753 0.4125,0.1718 0.715,0.4778 0.305937,0.3025 0.48125,0.715 0.17875,0.409 0.17875,0.8869 0,0.3162 -0.0825,0.6084 -0.07906,0.2887 -0.226875,0.5397 -0.144375,0.2509 -0.350625,0.4572 -0.202813,0.2028 -0.45375,0.3506 -0.250938,0.1444 -0.539688,0.2234 -0.285312,0.079 -0.598125,0.079 -0.31625,0 -0.608437,-0.079 -0.28875,-0.079 -0.539688,-0.2234 -0.250937,-0.1478 -0.457187,-0.3506 -0.202813,-0.2063 -0.350625,-0.4572 -0.144375,-0.251 -0.226875,-0.5397 -0.07906,-0.2922 -0.07906,-0.6084 z m 1.254688,0 q 0,0.2268 0.06875,0.4262 0.07219,0.1959 0.199375,0.3403 0.130625,0.1444 0.312812,0.2303 0.185625,0.082 0.415938,0.082 0.223437,0 0.402187,-0.082 0.182188,-0.086 0.305938,-0.2303 0.127187,-0.1444 0.1925,-0.3403 0.06875,-0.1994 0.06875,-0.4262 0,-0.22 -0.06875,-0.4194 -0.06531,-0.1994 -0.1925,-0.3506 -0.12375,-0.1513 -0.305938,-0.2372 -0.17875,-0.089 -0.402187,-0.089 -0.230313,0 -0.415938,0.089 -0.182187,0.086 -0.312812,0.2372 -0.127188,0.1512 -0.199375,0.3506 -0.06875,0.1994 -0.06875,0.4194 z"
         style="font-style:normal;font-variant:normal;font-weight:normal;font-stretch:normal;font-size:6.875px;font-family:COCOGOOSE;-inkscape-font-specification:COCOGOOSE;fill:#d5331e;fill-opacity:1"
         id="path4938" />
      <path
         d="m 46.127976,1033.5082 q 0.04469,-0.038 0.09281,-0.048 0.05156,-0.01 0.09625,-0.01 l 0.519063,0 q 0.06188,0 0.106562,0.024 0.04469,0.021 0.07562,0.058 0.03094,0.038 0.04812,0.086 0.02063,0.048 0.03781,0.1 l 0.106562,0.44 q 0.05156,-0.1065 0.147813,-0.2406 0.09969,-0.1375 0.250937,-0.2544 0.15125,-0.1203 0.3575,-0.1993 0.209688,-0.082 0.484688,-0.082 0.391875,0 0.711562,0.1512 0.319688,0.1513 0.543125,0.4125 0.226875,0.2613 0.350625,0.6119 0.12375,0.3472 0.12375,0.7425 l 0,2.2515 q 0,0.1307 -0.05844,0.1994 -0.055,0.065 -0.17875,0.065 l -0.794063,0 q -0.147812,0 -0.202812,-0.048 -0.055,-0.052 -0.055,-0.1959 l 0,-2.2378 q 0,-0.1479 -0.06875,-0.2785 -0.06531,-0.134 -0.175313,-0.2337 -0.11,-0.1032 -0.250937,-0.1616 -0.1375,-0.058 -0.281875,-0.058 -0.12375,0 -0.254375,0.055 -0.127188,0.055 -0.237188,0.1547 -0.106562,0.096 -0.182187,0.2303 -0.07219,0.1306 -0.0825,0.2853 l 0,2.2344 q 0,0.058 -0.02406,0.1168 -0.02063,0.059 -0.06531,0.089 -0.04469,0.027 -0.08594,0.038 -0.03781,0.01 -0.08937,0.01 l -0.776875,0 q -0.147812,0 -0.213125,-0.072 -0.06531,-0.072 -0.06531,-0.1925 l 0,-3.8465 q 0,-0.065 0.0275,-0.1203 0.03094,-0.055 0.0825,-0.086 l -0.02063,0.01 z"
         style="font-style:normal;font-variant:normal;font-weight:normal;font-stretch:normal;font-size:6.875px;font-family:COCOGOOSE;-inkscape-font-specification:COCOGOOSE;fill:#d5331e;fill-opacity:1"
         id="path4940" />
      <path
         d="m 55.43925,1037.5611 q 0,0.058 -0.02063,0.1134 -0.02062,0.052 -0.06875,0.082 -0.03781,0.038 -0.08937,0.048 -0.05156,0.01 -0.08937,0.01 l -0.677188,0 q -0.07219,0 -0.116875,-0.017 -0.04469,-0.021 -0.07219,-0.055 -0.0275,-0.034 -0.04813,-0.082 -0.01719,-0.051 -0.03781,-0.11 l -0.09969,-0.2578 q -0.09281,0.093 -0.202813,0.1994 -0.11,0.1031 -0.244062,0.1925 -0.130625,0.089 -0.285313,0.1478 -0.154687,0.062 -0.33,0.062 -0.312812,0 -0.601562,-0.079 -0.285313,-0.079 -0.53625,-0.2234 -0.2475,-0.1478 -0.450313,-0.3506 -0.202812,-0.2063 -0.350625,-0.4572 -0.144375,-0.251 -0.223437,-0.5397 -0.07906,-0.2922 -0.07906,-0.6084 0,-0.4779 0.175313,-0.8869 0.175312,-0.4125 0.477812,-0.715 0.3025,-0.306 0.711563,-0.4778 0.409062,-0.1753 0.876562,-0.1753 0.213125,0 0.391875,0.065 0.17875,0.062 0.323125,0.165 0.147813,0.1031 0.264688,0.2337 0.120312,0.1306 0.213125,0.2647 l 0.134062,-0.4159 q 0.03437,-0.086 0.055,-0.1375 0.02406,-0.055 0.04812,-0.079 0.0275,-0.027 0.06531,-0.034 0.03781,-0.01 0.106562,-0.01 l 0.512188,0 q 0.03781,0 0.08937,0.01 0.05156,0.01 0.08937,0.048 0.04813,0.038 0.06875,0.086 0.02063,0.048 0.02063,0.11 l 0,3.8741 z m -3.385938,-1.925 q 0,0.2268 0.06875,0.4262 0.07219,0.1959 0.202813,0.3403 0.130625,0.1444 0.312812,0.2303 0.185625,0.082 0.409063,0.082 0.230312,0 0.42625,-0.082 0.199375,-0.086 0.34375,-0.2303 0.147812,-0.1444 0.230312,-0.3403 0.0825,-0.1994 0.0825,-0.4262 0,-0.22 -0.0825,-0.4194 -0.0825,-0.1994 -0.230312,-0.3506 -0.144375,-0.1513 -0.34375,-0.2372 -0.195938,-0.089 -0.42625,-0.089 -0.223438,0 -0.409063,0.089 -0.182187,0.086 -0.312812,0.2372 -0.130625,0.1512 -0.202813,0.3506 -0.06875,0.1994 -0.06875,0.4194 z"
         style="font-style:normal;font-variant:normal;font-weight:normal;font-stretch:normal;font-size:6.875px;font-family:COCOGOOSE;-inkscape-font-specification:COCOGOOSE;fill:#d5331e;fill-opacity:1"
         id="path4942" />
      <path
         d="m 56.270534,1032.4151 q 0,-0.11 0.055,-0.1856 0.055,-0.076 0.189063,-0.076 l 0.842187,0 q 0.03438,0 0.07219,0.021 0.03781,0.017 0.06875,0.052 0.03437,0.034 0.055,0.082 0.02406,0.048 0.02406,0.1065 l 0,5.1356 q 0,0.1307 -0.07563,0.1994 -0.07219,0.065 -0.189062,0.065 l -0.7975,0 q -0.134063,0 -0.189063,-0.065 -0.055,-0.069 -0.055,-0.1994 l 0,-5.1356 z"
         style="font-style:normal;font-variant:normal;font-weight:normal;font-stretch:normal;font-size:6.875px;font-family:COCOGOOSE;-inkscape-font-specification:COCOGOOSE;fill:#d5331e;fill-opacity:1"
         id="path4944" />
      <path
         d="m 63.362097,1036.4714 q 0.04812,-0.034 0.08938,-0.041 0.04469,-0.01 0.06875,-0.01 0.05844,0 0.106562,0.024 0.04812,0.024 0.09969,0.1031 l 0.385,0.5809 q 0.01719,0.028 0.03094,0.062 0.01719,0.034 0.01719,0.055 0,0.079 -0.05156,0.1306 -0.04812,0.048 -0.106562,0.086 -0.281875,0.1959 -0.61875,0.3162 -0.333438,0.1169 -0.708125,0.1169 -0.309375,0 -0.598125,-0.079 -0.285313,-0.079 -0.532813,-0.2234 -0.2475,-0.1478 -0.45375,-0.3506 -0.20625,-0.2063 -0.350625,-0.4572 -0.144375,-0.251 -0.226875,-0.5397 -0.07906,-0.2922 -0.07906,-0.6084 0,-0.3163 0.07906,-0.6085 0.0825,-0.2922 0.226875,-0.5397 0.144375,-0.2509 0.350625,-0.4537 0.20625,-0.2063 0.45375,-0.3506 0.2475,-0.1444 0.532813,-0.2235 0.28875,-0.079 0.598125,-0.079 0.374687,0 0.690937,0.1 0.319688,0.1 0.598125,0.2957 l -0.01031,-0.01 q 0.07562,0.045 0.120312,0.1065 0.04469,0.059 0.04469,0.1478 0,0.062 -0.04125,0.1272 l -0.305938,0.5191 q -0.09625,0.1684 -0.23375,0.1684 -0.03094,0 -0.07562,-0.014 -0.04469,-0.017 -0.09969,-0.055 -0.15125,-0.1 -0.326563,-0.1616 -0.171875,-0.065 -0.367812,-0.065 -0.216563,0 -0.39875,0.089 -0.182188,0.086 -0.312813,0.2372 -0.127187,0.1512 -0.199375,0.3506 -0.07219,0.1994 -0.07219,0.4194 0,0.2268 0.07219,0.4262 0.07219,0.1959 0.199375,0.3403 0.130625,0.1444 0.312813,0.2303 0.182187,0.082 0.39875,0.082 0.195937,0 0.367812,-0.069 0.171875,-0.069 0.326563,-0.1753 z"
         style="font-style:normal;font-variant:normal;font-weight:normal;font-stretch:normal;font-size:6.875px;font-family:COCOGOOSE;-inkscape-font-specification:COCOGOOSE;fill:#d5331e;fill-opacity:1"
         id="path4946" />
      <path
         d="m 64.535519,1035.6361 q 0,-0.3163 0.07906,-0.6085 0.0825,-0.2922 0.226875,-0.5397 0.147812,-0.2509 0.350625,-0.4537 0.20625,-0.2063 0.457187,-0.3506 0.250938,-0.1444 0.539688,-0.2235 0.292187,-0.079 0.608437,-0.079 0.4675,0 0.876563,0.1753 0.4125,0.1718 0.715,0.4778 0.305937,0.3025 0.48125,0.715 0.17875,0.409 0.17875,0.8869 0,0.3162 -0.0825,0.6084 -0.07906,0.2887 -0.226875,0.5397 -0.144375,0.2509 -0.350625,0.4572 -0.202813,0.2028 -0.45375,0.3506 -0.250938,0.1444 -0.539688,0.2234 -0.285312,0.079 -0.598125,0.079 -0.31625,0 -0.608437,-0.079 -0.28875,-0.079 -0.539688,-0.2234 -0.250937,-0.1478 -0.457187,-0.3506 -0.202813,-0.2063 -0.350625,-0.4572 -0.144375,-0.251 -0.226875,-0.5397 -0.07906,-0.2922 -0.07906,-0.6084 z m 1.254688,0 q 0,0.2268 0.06875,0.4262 0.07219,0.1959 0.199375,0.3403 0.130625,0.1444 0.312812,0.2303 0.185625,0.082 0.415938,0.082 0.223437,0 0.402187,-0.082 0.182188,-0.086 0.305938,-0.2303 0.127187,-0.1444 0.1925,-0.3403 0.06875,-0.1994 0.06875,-0.4262 0,-0.22 -0.06875,-0.4194 -0.06531,-0.1994 -0.1925,-0.3506 -0.12375,-0.1513 -0.305938,-0.2372 -0.17875,-0.089 -0.402187,-0.089 -0.230313,0 -0.415938,0.089 -0.182187,0.086 -0.312812,0.2372 -0.127188,0.1512 -0.199375,0.3506 -0.06875,0.1994 -0.06875,0.4194 z"
         style="font-style:normal;font-variant:normal;font-weight:normal;font-stretch:normal;font-size:6.875px;font-family:COCOGOOSE;-inkscape-font-specification:COCOGOOSE;fill:#d5331e;fill-opacity:1"
         id="path4948" />
      <path
         d="m 72.815114,1037.2826 q -0.09281,0.093 -0.20625,0.1994 -0.11,0.1066 -0.244062,0.1994 -0.134063,0.093 -0.28875,0.1512 -0.154688,0.062 -0.333438,0.062 -0.4675,0 -0.862812,-0.1753 -0.391875,-0.1753 -0.677188,-0.4778 -0.281875,-0.306 -0.443437,-0.7185 -0.158125,-0.4125 -0.158125,-0.8868 0,-0.4779 0.158125,-0.8869 0.161562,-0.4125 0.443437,-0.715 0.285313,-0.306 0.677188,-0.4778 0.395312,-0.1753 0.862812,-0.1753 0.189063,0 0.34375,0.055 0.158125,0.055 0.285313,0.1409 0.130625,0.086 0.237187,0.1959 0.11,0.1066 0.20625,0.2097 l 0,-1.5709 q 0,-0.11 0.06531,-0.1856 0.06875,-0.076 0.202812,-0.076 l 0.773438,0 q 0.04469,0 0.09281,0.021 0.05156,0.017 0.09281,0.052 0.04125,0.034 0.06531,0.082 0.0275,0.048 0.0275,0.1066 l 0,5.139 q 0,0.2647 -0.278437,0.2647 l -0.67375,0 q -0.06875,0 -0.106563,-0.017 -0.03781,-0.017 -0.06531,-0.048 -0.02406,-0.034 -0.04469,-0.082 -0.02062,-0.052 -0.05156,-0.1169 l -0.09969,-0.2681 z m -1.976562,-1.6465 q 0,0.2268 0.06875,0.4262 0.07219,0.1959 0.202812,0.3403 0.130625,0.1444 0.312813,0.2303 0.185625,0.082 0.409062,0.082 0.22,0 0.4125,-0.079 0.195938,-0.079 0.340313,-0.2166 0.144375,-0.1409 0.230312,-0.33 0.08938,-0.1891 0.09969,-0.4056 l 0,-0.048 q 0,-0.22 -0.0825,-0.4194 -0.0825,-0.1994 -0.230313,-0.3506 -0.144375,-0.1513 -0.34375,-0.2372 -0.195937,-0.089 -0.42625,-0.089 -0.223437,0 -0.409062,0.089 -0.182188,0.086 -0.312813,0.2372 -0.130625,0.1512 -0.202812,0.3506 -0.06875,0.1994 -0.06875,0.4194 z"
         style="font-style:normal;font-variant:normal;font-weight:normal;font-stretch:normal;font-size:6.875px;font-family:COCOGOOSE;-inkscape-font-specification:COCOGOOSE;fill:#d5331e;fill-opacity:1"
         id="path4950" />
      <path
         d="m 78.713435,1037.2929 q -0.3025,0.2785 -0.680625,0.4366 -0.378125,0.1547 -0.800938,0.1547 -0.470937,0 -0.890312,-0.1719 -0.419375,-0.1719 -0.735625,-0.4744 -0.31625,-0.3059 -0.501875,-0.7184 -0.185625,-0.4125 -0.185625,-0.8972 0,-0.3025 0.07219,-0.5844 0.07563,-0.2853 0.209688,-0.5328 0.1375,-0.2475 0.33,-0.4537 0.195937,-0.2097 0.436562,-0.3575 0.240625,-0.1478 0.5225,-0.2303 0.281875,-0.082 0.594688,-0.082 0.285312,0 0.553437,0.076 0.268125,0.076 0.501875,0.2131 0.237188,0.1375 0.433125,0.33 0.195938,0.1925 0.336875,0.4228 0.140938,0.2269 0.216563,0.4881 0.07906,0.2579 0.07906,0.5329 0,0.1787 -0.0069,0.2921 -0.0034,0.1135 -0.05156,0.1822 -0.04812,0.065 -0.161563,0.093 -0.11,0.024 -0.326562,0.024 l -2.475,0 q 0.03437,0.22 0.1375,0.3678 0.106562,0.1478 0.244062,0.2372 0.1375,0.086 0.292188,0.1238 0.154687,0.038 0.292187,0.038 0.12375,0 0.254375,-0.024 0.130625,-0.027 0.250938,-0.069 0.12375,-0.045 0.223437,-0.1 0.103125,-0.058 0.165,-0.1203 0.055,-0.045 0.09281,-0.065 0.04125,-0.024 0.08594,-0.024 0.04469,0 0.08937,0.031 0.04812,0.031 0.106563,0.089 l 0.364375,0.4125 q 0.03781,0.045 0.04812,0.082 0.01031,0.034 0.01031,0.072 0,0.069 -0.03781,0.1203 -0.03781,0.048 -0.08937,0.086 z m -1.653438,-2.8634 q -0.134062,0 -0.26125,0.055 -0.12375,0.052 -0.23375,0.1409 -0.11,0.089 -0.199375,0.2028 -0.08594,0.1135 -0.140937,0.2304 l 1.756562,0 q -0.07219,-0.1341 -0.158125,-0.2475 -0.0825,-0.1135 -0.1925,-0.1994 -0.106562,-0.086 -0.2475,-0.1341 -0.1375,-0.048 -0.323125,-0.048 z"
         style="font-style:normal;font-variant:normal;font-weight:normal;font-stretch:normal;font-size:6.875px;font-family:COCOGOOSE;-inkscape-font-specification:COCOGOOSE;fill:#d5331e;fill-opacity:1"
         id="path4952" />
      <path
         d="m 83.092702,1037.6642 q 0.03781,-0.1169 0.03437,-0.2647 0,-0.1513 0,-0.3059 -0.09969,0.1065 -0.202812,0.2268 -0.103125,0.1169 -0.230313,0.22 -0.12375,0.1 -0.281875,0.165 -0.158125,0.065 -0.367812,0.065 -0.464063,0 -0.859375,-0.1581 -0.395313,-0.1581 -0.684063,-0.44 -0.28875,-0.2853 -0.450312,-0.6806 -0.161563,-0.3953 -0.161563,-0.8697 0,-0.4709 0.161563,-0.88 0.161562,-0.4125 0.450312,-0.715 0.28875,-0.3059 0.684063,-0.4778 0.395312,-0.1753 0.859375,-0.1753 0.213125,0 0.381562,0.065 0.171875,0.065 0.309375,0.1684 0.140938,0.1032 0.254375,0.2338 0.116875,0.1272 0.22,0.2544 l 0.130625,-0.4091 q 0.02062,-0.058 0.03781,-0.1066 0.01719,-0.048 0.04469,-0.079 0.0275,-0.034 0.06875,-0.052 0.04469,-0.017 0.113438,-0.017 l 0.512187,0 q 0.03781,0 0.08594,0.01 0.05156,0.01 0.08938,0.048 0.04812,0.038 0.07219,0.082 0.02406,0.045 0.02406,0.1134 l 0,3.4994 q 0,0.5362 -0.175313,0.9556 -0.175312,0.4194 -0.48125,0.7081 -0.3025,0.2888 -0.718437,0.44 -0.415938,0.1513 -0.89375,0.1513 -0.185625,0 -0.39875,-0.034 -0.213125,-0.031 -0.42625,-0.096 -0.209688,-0.065 -0.409063,-0.1684 -0.195937,-0.1 -0.347187,-0.2337 -0.04125,-0.031 -0.07219,-0.072 -0.03094,-0.041 -0.04469,-0.093 -0.01031,-0.052 0,-0.1135 0.01375,-0.058 0.05844,-0.1237 l 0.326563,-0.4503 q 0.08938,-0.096 0.168437,-0.1032 0.07906,-0.01 0.199375,0.082 0.08594,0.082 0.195938,0.1307 0.113437,0.052 0.230312,0.079 0.120313,0.031 0.23375,0.038 0.116875,0.01 0.209688,0.01 0.154687,0 0.323125,-0.041 0.168437,-0.041 0.312812,-0.1238 0.147813,-0.079 0.257813,-0.1959 0.113437,-0.1169 0.154687,-0.2681 z m -1.96625,-2.0419 q 0,0.2303 0.06875,0.4297 0.07219,0.1959 0.202813,0.3403 0.130625,0.1444 0.312812,0.2269 0.185625,0.082 0.409063,0.082 0.22,0 0.4125,-0.076 0.195937,-0.079 0.340312,-0.2166 0.144375,-0.1375 0.230313,-0.3231 0.08938,-0.1857 0.09969,-0.4022 l 0,-0.1135 q -0.01031,-0.2096 -0.09969,-0.3953 -0.08594,-0.189 -0.230313,-0.33 -0.144375,-0.1443 -0.340312,-0.2268 -0.1925,-0.086 -0.4125,-0.086 -0.223438,0 -0.409063,0.089 -0.182187,0.086 -0.312812,0.2337 -0.130625,0.1479 -0.202813,0.3472 -0.06875,0.1994 -0.06875,0.4194 z"
         style="font-style:normal;font-variant:normal;font-weight:normal;font-stretch:normal;font-size:6.875px;font-family:COCOGOOSE;-inkscape-font-specification:COCOGOOSE;fill:#d5331e;fill-opacity:1"
         id="path4954" />
      <path
         d="m 85.073239,1035.6361 q 0,-0.3163 0.07906,-0.6085 0.0825,-0.2922 0.226875,-0.5397 0.147812,-0.2509 0.350625,-0.4537 0.20625,-0.2063 0.457187,-0.3506 0.250938,-0.1444 0.539688,-0.2235 0.292187,-0.079 0.608437,-0.079 0.4675,0 0.876563,0.1753 0.4125,0.1718 0.715,0.4778 0.305937,0.3025 0.48125,0.715 0.17875,0.409 0.17875,0.8869 0,0.3162 -0.0825,0.6084 -0.07906,0.2887 -0.226875,0.5397 -0.144375,0.2509 -0.350625,0.4572 -0.202813,0.2028 -0.45375,0.3506 -0.250938,0.1444 -0.539688,0.2234 -0.285312,0.079 -0.598125,0.079 -0.31625,0 -0.608437,-0.079 -0.28875,-0.079 -0.539688,-0.2234 -0.250937,-0.1478 -0.457187,-0.3506 -0.202813,-0.2063 -0.350625,-0.4572 -0.144375,-0.251 -0.226875,-0.5397 -0.07906,-0.2922 -0.07906,-0.6084 z m 1.254688,0 q 0,0.2268 0.06875,0.4262 0.07219,0.1959 0.199375,0.3403 0.130625,0.1444 0.312812,0.2303 0.185625,0.082 0.415938,0.082 0.223437,0 0.402187,-0.082 0.182188,-0.086 0.305938,-0.2303 0.127187,-0.1444 0.1925,-0.3403 0.06875,-0.1994 0.06875,-0.4262 0,-0.22 -0.06875,-0.4194 -0.06531,-0.1994 -0.1925,-0.3506 -0.12375,-0.1513 -0.305938,-0.2372 -0.17875,-0.089 -0.402187,-0.089 -0.230313,0 -0.415938,0.089 -0.182187,0.086 -0.312812,0.2372 -0.127188,0.1512 -0.199375,0.3506 -0.06875,0.1994 -0.06875,0.4194 z"
         style="font-style:normal;font-variant:normal;font-weight:normal;font-stretch:normal;font-size:6.875px;font-family:COCOGOOSE;-inkscape-font-specification:COCOGOOSE;fill:#d5331e;fill-opacity:1"
         id="path4956" />
      <path
         d="m 90.269558,1032.4151 q 0,-0.11 0.055,-0.1856 0.055,-0.076 0.189062,-0.076 l 0.842188,0 q 0.03437,0 0.07219,0.021 0.03781,0.017 0.06875,0.052 0.03437,0.034 0.055,0.082 0.02406,0.048 0.02406,0.1065 l 0,5.1356 q 0,0.1307 -0.07562,0.1994 -0.07219,0.065 -0.189063,0.065 l -0.7975,0 q -0.134062,0 -0.189062,-0.065 -0.055,-0.069 -0.055,-0.1994 l 0,-5.1356 z"
         style="font-style:normal;font-variant:normal;font-weight:normal;font-stretch:normal;font-size:6.875px;font-family:COCOGOOSE;-inkscape-font-specification:COCOGOOSE;fill:#d5331e;fill-opacity:1"
         id="path4958" />
      <path
         d="m 92.820505,1033.5117 q 0,-0.3197 0.1375,-0.6016 0.1375,-0.2819 0.367812,-0.4915 0.230313,-0.2132 0.529375,-0.3335 0.299063,-0.1237 0.625625,-0.1237 l 0.06875,0 q 0.116875,0 0.17875,0.072 0.06531,0.069 0.06531,0.1925 l 0,0.6565 q 0,0.1272 -0.06875,0.2131 -0.06531,0.082 -0.175313,0.082 l -0.06875,0 q -0.07219,0 -0.1375,0.027 -0.06531,0.024 -0.116875,0.069 -0.05156,0.045 -0.0825,0.1066 -0.03094,0.058 -0.03094,0.1306 l 0,0.3953 0.539687,0 q 0.116875,0 0.17875,0.065 0.06531,0.062 0.06531,0.1994 l 0,0.629 q 0,0.1479 -0.06531,0.2166 -0.06188,0.069 -0.17875,0.069 l -0.539687,0 0,2.4646 q 0,0.1307 -0.08938,0.1994 -0.08594,0.065 -0.189063,0.065 l -0.7425,0 q -0.12375,0 -0.199375,-0.076 -0.07219,-0.079 -0.07219,-0.1891 l 0,-2.4646 -0.354063,0 q -0.120312,0 -0.195937,-0.069 -0.07219,-0.069 -0.07219,-0.2166 l 0,-0.629 q 0,-0.1375 0.07219,-0.1994 0.07563,-0.065 0.195937,-0.065 l 0.354063,0 0,-0.3953 z"
         style="font-style:normal;font-variant:normal;font-weight:normal;font-stretch:normal;font-size:6.875px;font-family:COCOGOOSE;-inkscape-font-specification:COCOGOOSE;fill:#d5331e;fill-opacity:1"
         id="path4960" />
      <path
         d="m 97.636765,1033.4911 q 0.04469,-0.038 0.09281,-0.048 0.04812,-0.01 0.09281,-0.01 l 0.519062,0 q 0.06531,0 0.106563,0.021 0.04469,0.021 0.07219,0.059 0.0275,0.034 0.04469,0.082 0.02062,0.045 0.03781,0.1 l 0.144375,0.4159 q 0.09625,-0.1237 0.1925,-0.2509 0.09969,-0.1307 0.23375,-0.2338 0.134063,-0.1065 0.319688,-0.1753 0.185625,-0.069 0.45375,-0.069 0.470935,0 0.866245,0.1753 0.39875,0.1718 0.68407,0.4778 0.28875,0.3025 0.45031,0.715 0.16156,0.409 0.16156,0.8869 0,0.4743 -0.16156,0.8868 -0.16156,0.4125 -0.45031,0.7185 -0.28532,0.3025 -0.68407,0.4778 -0.39531,0.1753 -0.866245,0.1753 -0.223438,0 -0.385,-0.055 -0.161563,-0.052 -0.28875,-0.1375 -0.12375,-0.086 -0.22,-0.1891 -0.09625,-0.1031 -0.189063,-0.2062 l 0,1.6019 q 0,0.1031 -0.06188,0.1753 -0.06188,0.072 -0.1925,0.072 l -0.787187,0 q -0.04125,0 -0.08938,-0.017 -0.04812,-0.017 -0.08937,-0.048 -0.04125,-0.031 -0.06875,-0.079 -0.0275,-0.045 -0.0275,-0.1031 l 0,-5.2216 q 0,-0.069 0.02406,-0.1134 0.0275,-0.045 0.06531,-0.082 z m 3.210625,2.145 q 0,-0.22 -0.0722,-0.416 -0.0722,-0.1994 -0.20281,-0.3472 -0.13063,-0.1478 -0.31281,-0.2337 -0.18219,-0.086 -0.40219,-0.086 -0.216563,0 -0.4125,0.082 -0.1925,0.079 -0.340313,0.22 -0.144375,0.1375 -0.237187,0.3266 -0.08938,0.1891 -0.09969,0.4022 l 0,0.052 q 0,0.2268 0.08594,0.4262 0.08594,0.1994 0.23375,0.3472 0.147812,0.1444 0.347187,0.2303 0.199375,0.086 0.422813,0.086 0.22,0 0.40219,-0.086 0.18218,-0.086 0.31281,-0.2303 0.13062,-0.1478 0.20281,-0.3472 0.0722,-0.1994 0.0722,-0.4262 z"
         style="font-style:normal;font-variant:normal;font-weight:normal;font-stretch:normal;font-size:6.875px;font-family:COCOGOOSE;-inkscape-font-specification:COCOGOOSE;fill:#d5331e;fill-opacity:1"
         id="path4962" />
      <path
         d="m 102.79763,1033.7042 q 0,-0.058 0.0241,-0.11 0.0275,-0.055 0.0653,-0.086 0.0894,-0.058 0.18562,-0.058 l 0.51907,0 q 0.0653,0 0.10312,0.024 0.0378,0.024 0.0619,0.062 0.0275,0.038 0.0447,0.086 0.0206,0.048 0.0481,0.096 0.007,0.014 0.0275,0.069 0.0206,0.051 0.0447,0.1169 0.0241,0.062 0.0447,0.1203 0.0241,0.055 0.0309,0.072 0.10313,-0.1135 0.19594,-0.2372 0.0963,-0.1272 0.20281,-0.2338 0.10656,-0.1065 0.23719,-0.1753 0.13062,-0.069 0.30937,-0.069 0.18563,0 0.33,0.027 0.14782,0.027 0.27844,0.082 0.13063,0.052 0.25781,0.134 0.13063,0.082 0.28188,0.1925 0.23719,0.1272 0.0894,0.3781 l -0.31281,0.5329 q -0.0688,0.1031 -0.16844,0.1271 -0.0997,0.024 -0.21656,-0.031 -0.14781,-0.1444 -0.3025,-0.2131 -0.15125,-0.072 -0.34719,-0.072 -0.13406,0 -0.23718,0.038 -0.0997,0.038 -0.18219,0.1066 -0.0825,0.069 -0.15469,0.165 -0.0722,0.096 -0.14437,0.2131 l 0,2.4887 q 0,0.1307 -0.0653,0.1994 -0.0619,0.065 -0.20968,0.065 l -0.77344,0 q -0.26813,0 -0.26813,-0.2647 l 0,-3.8465 z"
         style="font-style:normal;font-variant:normal;font-weight:normal;font-stretch:normal;font-size:6.875px;font-family:COCOGOOSE;-inkscape-font-specification:COCOGOOSE;fill:#d5331e;fill-opacity:1"
         id="path4964" />
      <path
         d="m 106.29577,1035.6361 q 0,-0.3163 0.0791,-0.6085 0.0825,-0.2922 0.22687,-0.5397 0.14781,-0.2509 0.35063,-0.4537 0.20625,-0.2063 0.45718,-0.3506 0.25094,-0.1444 0.53969,-0.2235 0.29219,-0.079 0.60844,-0.079 0.4675,0 0.87656,0.1753 0.4125,0.1718 0.715,0.4778 0.30594,0.3025 0.48125,0.715 0.17875,0.409 0.17875,0.8869 0,0.3162 -0.0825,0.6084 -0.0791,0.2887 -0.22687,0.5397 -0.14438,0.2509 -0.35063,0.4572 -0.20281,0.2028 -0.45375,0.3506 -0.25094,0.1444 -0.53969,0.2234 -0.28531,0.079 -0.59812,0.079 -0.31625,0 -0.60844,-0.079 -0.28875,-0.079 -0.53969,-0.2234 -0.25093,-0.1478 -0.45718,-0.3506 -0.20282,-0.2063 -0.35063,-0.4572 -0.14437,-0.251 -0.22687,-0.5397 -0.0791,-0.2922 -0.0791,-0.6084 z m 1.25469,0 q 0,0.2268 0.0687,0.4262 0.0722,0.1959 0.19938,0.3403 0.13062,0.1444 0.31281,0.2303 0.18562,0.082 0.41594,0.082 0.22343,0 0.40218,-0.082 0.18219,-0.086 0.30594,-0.2303 0.12719,-0.1444 0.1925,-0.3403 0.0688,-0.1994 0.0688,-0.4262 0,-0.22 -0.0688,-0.4194 -0.0653,-0.1994 -0.1925,-0.3506 -0.12375,-0.1513 -0.30594,-0.2372 -0.17875,-0.089 -0.40218,-0.089 -0.23032,0 -0.41594,0.089 -0.18219,0.086 -0.31281,0.2372 -0.12719,0.1512 -0.19938,0.3506 -0.0687,0.1994 -0.0687,0.4194 z"
         style="font-style:normal;font-variant:normal;font-weight:normal;font-stretch:normal;font-size:6.875px;font-family:COCOGOOSE;-inkscape-font-specification:COCOGOOSE;fill:#d5331e;fill-opacity:1"
         id="path4966" />
      <path
         d="m 114.66131,1037.6642 q 0.0378,-0.1169 0.0344,-0.2647 0,-0.1513 0,-0.3059 -0.0997,0.1065 -0.20281,0.2268 -0.10313,0.1169 -0.23031,0.22 -0.12375,0.1 -0.28188,0.165 -0.15812,0.065 -0.36781,0.065 -0.46406,0 -0.85938,-0.1581 -0.39531,-0.1581 -0.68406,-0.44 -0.28875,-0.2853 -0.45031,-0.6806 -0.16156,-0.3953 -0.16156,-0.8697 0,-0.4709 0.16156,-0.88 0.16156,-0.4125 0.45031,-0.715 0.28875,-0.3059 0.68406,-0.4778 0.39532,-0.1753 0.85938,-0.1753 0.21312,0 0.38156,0.065 0.17188,0.065 0.30938,0.1684 0.14093,0.1032 0.25437,0.2338 0.11688,0.1272 0.22,0.2544 l 0.13063,-0.4091 q 0.0206,-0.058 0.0378,-0.1066 0.0172,-0.048 0.0447,-0.079 0.0275,-0.034 0.0687,-0.052 0.0447,-0.017 0.11343,-0.017 l 0.51219,0 q 0.0378,0 0.0859,0.01 0.0516,0.01 0.0894,0.048 0.0481,0.038 0.0722,0.082 0.0241,0.045 0.0241,0.1134 l 0,3.4994 q 0,0.5362 -0.17531,0.9556 -0.17531,0.4194 -0.48125,0.7081 -0.3025,0.2888 -0.71844,0.44 -0.41593,0.1513 -0.89375,0.1513 -0.18562,0 -0.39875,-0.034 -0.21312,-0.031 -0.42625,-0.096 -0.20968,-0.065 -0.40906,-0.1684 -0.19594,-0.1 -0.34719,-0.2337 -0.0413,-0.031 -0.0722,-0.072 -0.0309,-0.041 -0.0447,-0.093 -0.0103,-0.052 0,-0.1135 0.0138,-0.058 0.0584,-0.1237 l 0.32656,-0.4503 q 0.0894,-0.096 0.16844,-0.1032 0.0791,-0.01 0.19937,0.082 0.0859,0.082 0.19594,0.1307 0.11344,0.052 0.23031,0.079 0.12031,0.031 0.23375,0.038 0.11688,0.01 0.20969,0.01 0.15469,0 0.32312,-0.041 0.16844,-0.041 0.31282,-0.1238 0.14781,-0.079 0.25781,-0.1959 0.11344,-0.1169 0.15469,-0.2681 z m -1.96625,-2.0419 q 0,0.2303 0.0688,0.4297 0.0722,0.1959 0.20281,0.3403 0.13062,0.1444 0.31281,0.2269 0.18563,0.082 0.40906,0.082 0.22,0 0.4125,-0.076 0.19594,-0.079 0.34032,-0.2166 0.14437,-0.1375 0.23031,-0.3231 0.0894,-0.1857 0.0997,-0.4022 l 0,-0.1135 q -0.0103,-0.2096 -0.0997,-0.3953 -0.0859,-0.189 -0.23031,-0.33 -0.14438,-0.1443 -0.34032,-0.2268 -0.1925,-0.086 -0.4125,-0.086 -0.22343,0 -0.40906,0.089 -0.18219,0.086 -0.31281,0.2337 -0.13063,0.1479 -0.20281,0.3472 -0.0688,0.1994 -0.0688,0.4194 z"
         style="font-style:normal;font-variant:normal;font-weight:normal;font-stretch:normal;font-size:6.875px;font-family:COCOGOOSE;-inkscape-font-specification:COCOGOOSE;fill:#d5331e;fill-opacity:1"
         id="path4968" />
      <path
         d="m 116.77591,1033.7042 q 0,-0.058 0.0241,-0.11 0.0275,-0.055 0.0653,-0.086 0.0894,-0.058 0.18563,-0.058 l 0.51906,0 q 0.0653,0 0.10312,0.024 0.0378,0.024 0.0619,0.062 0.0275,0.038 0.0447,0.086 0.0206,0.048 0.0481,0.096 0.007,0.014 0.0275,0.069 0.0206,0.051 0.0447,0.1169 0.0241,0.062 0.0447,0.1203 0.0241,0.055 0.0309,0.072 0.10313,-0.1135 0.19594,-0.2372 0.0962,-0.1272 0.20281,-0.2338 0.10657,-0.1065 0.23719,-0.1753 0.13063,-0.069 0.30938,-0.069 0.18562,0 0.33,0.027 0.14781,0.027 0.27843,0.082 0.13063,0.052 0.25782,0.134 0.13062,0.082 0.28187,0.1925 0.23719,0.1272 0.0894,0.3781 l -0.31282,0.5329 q -0.0687,0.1031 -0.16843,0.1271 -0.0997,0.024 -0.21657,-0.031 -0.14781,-0.1444 -0.3025,-0.2131 -0.15125,-0.072 -0.34718,-0.072 -0.13407,0 -0.23719,0.038 -0.0997,0.038 -0.18219,0.1066 -0.0825,0.069 -0.15469,0.165 -0.0722,0.096 -0.14437,0.2131 l 0,2.4887 q 0,0.1307 -0.0653,0.1994 -0.0619,0.065 -0.20969,0.065 l -0.77344,0 q -0.26812,0 -0.26812,-0.2647 l 0,-3.8465 z"
         style="font-style:normal;font-variant:normal;font-weight:normal;font-stretch:normal;font-size:6.875px;font-family:COCOGOOSE;-inkscape-font-specification:COCOGOOSE;fill:#d5331e;fill-opacity:1"
         id="path4970" />
      <path
         d="m 124.90092,1037.5611 q 0,0.058 -0.0206,0.1134 -0.0206,0.052 -0.0688,0.082 -0.0378,0.038 -0.0894,0.048 -0.0516,0.01 -0.0894,0.01 l -0.67718,0 q -0.0722,0 -0.11688,-0.017 -0.0447,-0.021 -0.0722,-0.055 -0.0275,-0.034 -0.0481,-0.082 -0.0172,-0.051 -0.0378,-0.11 l -0.0997,-0.2578 q -0.0928,0.093 -0.20281,0.1994 -0.11,0.1031 -0.24407,0.1925 -0.13062,0.089 -0.28531,0.1478 -0.15469,0.062 -0.33,0.062 -0.31281,0 -0.60156,-0.079 -0.28531,-0.079 -0.53625,-0.2234 -0.2475,-0.1478 -0.45031,-0.3506 -0.20282,-0.2063 -0.35063,-0.4572 -0.14437,-0.251 -0.22344,-0.5397 -0.0791,-0.2922 -0.0791,-0.6084 0,-0.4779 0.17531,-0.8869 0.17532,-0.4125 0.47782,-0.715 0.3025,-0.306 0.71156,-0.4778 0.40906,-0.1753 0.87656,-0.1753 0.21313,0 0.39188,0.065 0.17875,0.062 0.32312,0.165 0.14781,0.1031 0.26469,0.2337 0.12031,0.1306 0.21312,0.2647 l 0.13407,-0.4159 q 0.0344,-0.086 0.055,-0.1375 0.0241,-0.055 0.0481,-0.079 0.0275,-0.027 0.0653,-0.034 0.0378,-0.01 0.10657,-0.01 l 0.51218,0 q 0.0378,0 0.0894,0.01 0.0516,0.01 0.0894,0.048 0.0481,0.038 0.0688,0.086 0.0206,0.048 0.0206,0.11 l 0,3.8741 z m -3.38594,-1.925 q 0,0.2268 0.0688,0.4262 0.0722,0.1959 0.20281,0.3403 0.13063,0.1444 0.31282,0.2303 0.18562,0.082 0.40906,0.082 0.23031,0 0.42625,-0.082 0.19937,-0.086 0.34375,-0.2303 0.14781,-0.1444 0.23031,-0.3403 0.0825,-0.1994 0.0825,-0.4262 0,-0.22 -0.0825,-0.4194 -0.0825,-0.1994 -0.23031,-0.3506 -0.14438,-0.1513 -0.34375,-0.2372 -0.19594,-0.089 -0.42625,-0.089 -0.22344,0 -0.40906,0.089 -0.18219,0.086 -0.31282,0.2372 -0.13062,0.1512 -0.20281,0.3506 -0.0688,0.1994 -0.0688,0.4194 z"
         style="font-style:normal;font-variant:normal;font-weight:normal;font-stretch:normal;font-size:6.875px;font-family:COCOGOOSE;-inkscape-font-specification:COCOGOOSE;fill:#d5331e;fill-opacity:1"
         id="path4972" />
      <path
         d="m 125.82158,1033.5082 q 0.0447,-0.038 0.0928,-0.048 0.0516,-0.01 0.0962,-0.01 l 0.51906,0 q 0.0619,0 0.10657,0.024 0.0447,0.021 0.0756,0.058 0.0309,0.038 0.0481,0.086 0.0206,0.048 0.0378,0.1 l 0.10656,0.44 q 0.0516,-0.1065 0.12375,-0.2406 0.0756,-0.1375 0.19594,-0.2544 0.12375,-0.1203 0.30594,-0.1993 0.18562,-0.082 0.46062,-0.082 0.44,0 0.77,0.189 0.33,0.1856 0.54313,0.5019 0.0653,-0.1066 0.17875,-0.2269 0.11343,-0.1237 0.27156,-0.2269 0.15812,-0.1031 0.36094,-0.1684 0.20625,-0.069 0.45375,-0.069 0.39187,0 0.69781,0.1512 0.30937,0.1513 0.5225,0.4125 0.21656,0.2613 0.32656,0.6119 0.11344,0.3472 0.11344,0.7425 l 0,2.2515 q 0,0.1307 -0.0584,0.1994 -0.055,0.065 -0.17875,0.065 l -0.79406,0 q -0.14781,0 -0.20281,-0.048 -0.055,-0.052 -0.055,-0.1959 l 0,-2.2722 q 0,-0.1478 -0.0481,-0.275 -0.0447,-0.1272 -0.12719,-0.22 -0.0825,-0.096 -0.20281,-0.1478 -0.11687,-0.055 -0.26125,-0.055 -0.13062,0 -0.2475,0.052 -0.11687,0.052 -0.20625,0.1444 -0.0894,0.089 -0.14437,0.22 -0.0516,0.1272 -0.0516,0.2819 l 0,2.2515 q 0,0.1307 -0.0584,0.1994 -0.055,0.065 -0.17875,0.065 l -0.0722,0 -0.0275,0 -0.69438,0 q -0.14781,0 -0.20281,-0.048 -0.055,-0.052 -0.055,-0.1959 l 0,-2.2722 q 0,-0.1478 -0.0447,-0.275 -0.0413,-0.1272 -0.12375,-0.22 -0.0791,-0.096 -0.19593,-0.1478 -0.11344,-0.055 -0.25782,-0.055 -0.12375,0 -0.24406,0.052 -0.11687,0.048 -0.21312,0.141 -0.0928,0.089 -0.15813,0.2165 -0.0619,0.1272 -0.0722,0.2819 l 0,2.2688 q 0,0.058 -0.0241,0.1168 -0.0206,0.059 -0.0653,0.089 -0.0447,0.027 -0.0859,0.038 -0.0378,0.01 -0.0894,0.01 l -0.77688,0 q -0.14781,0 -0.21312,-0.072 -0.0653,-0.072 -0.0653,-0.1925 l 0,-3.8465 q 0,-0.065 0.0275,-0.1203 0.0309,-0.055 0.0825,-0.086 l -0.0206,0.01 z"
         style="font-style:normal;font-variant:normal;font-weight:normal;font-stretch:normal;font-size:6.875px;font-family:COCOGOOSE;-inkscape-font-specification:COCOGOOSE;fill:#d5331e;fill-opacity:1"
         id="path4974" />
      <path
         d="m 133.15312,1033.5082 q 0.0447,-0.038 0.0928,-0.048 0.0516,-0.01 0.0963,-0.01 l 0.51907,0 q 0.0619,0 0.10656,0.024 0.0447,0.021 0.0756,0.058 0.0309,0.038 0.0481,0.086 0.0206,0.048 0.0378,0.1 l 0.10656,0.44 q 0.0516,-0.1065 0.12375,-0.2406 0.0756,-0.1375 0.19594,-0.2544 0.12375,-0.1203 0.30594,-0.1993 0.18562,-0.082 0.46062,-0.082 0.44,0 0.77,0.189 0.33,0.1856 0.54313,0.5019 0.0653,-0.1066 0.17875,-0.2269 0.11344,-0.1237 0.27156,-0.2269 0.15813,-0.1031 0.36094,-0.1684 0.20625,-0.069 0.45375,-0.069 0.39187,0 0.69781,0.1512 0.30938,0.1513 0.5225,0.4125 0.21656,0.2613 0.32656,0.6119 0.11344,0.3472 0.11344,0.7425 l 0,2.2515 q 0,0.1307 -0.0584,0.1994 -0.055,0.065 -0.17875,0.065 l -0.79406,0 q -0.14781,0 -0.20281,-0.048 -0.055,-0.052 -0.055,-0.1959 l 0,-2.2722 q 0,-0.1478 -0.0481,-0.275 -0.0447,-0.1272 -0.12718,-0.22 -0.0825,-0.096 -0.20282,-0.1478 -0.11687,-0.055 -0.26125,-0.055 -0.13062,0 -0.2475,0.052 -0.11687,0.052 -0.20625,0.1444 -0.0894,0.089 -0.14437,0.22 -0.0516,0.1272 -0.0516,0.2819 l 0,2.2515 q 0,0.1307 -0.0584,0.1994 -0.055,0.065 -0.17875,0.065 l -0.0722,0 -0.0275,0 -0.69437,0 q -0.14782,0 -0.20282,-0.048 -0.055,-0.052 -0.055,-0.1959 l 0,-2.2722 q 0,-0.1478 -0.0447,-0.275 -0.0413,-0.1272 -0.12375,-0.22 -0.0791,-0.096 -0.19594,-0.1478 -0.11344,-0.055 -0.25781,-0.055 -0.12375,0 -0.24407,0.052 -0.11687,0.048 -0.21312,0.141 -0.0928,0.089 -0.15813,0.2165 -0.0619,0.1272 -0.0722,0.2819 l 0,2.2688 q 0,0.058 -0.0241,0.1168 -0.0206,0.059 -0.0653,0.089 -0.0447,0.027 -0.0859,0.038 -0.0378,0.01 -0.0894,0.01 l -0.77688,0 q -0.14781,0 -0.21312,-0.072 -0.0653,-0.072 -0.0653,-0.1925 l 0,-3.8465 q 0,-0.065 0.0275,-0.1203 0.0309,-0.055 0.0825,-0.086 l -0.0206,0.01 z"
         style="font-style:normal;font-variant:normal;font-weight:normal;font-stretch:normal;font-size:6.875px;font-family:COCOGOOSE;-inkscape-font-specification:COCOGOOSE;fill:#d5331e;fill-opacity:1"
         id="path4976" />
      <path
         d="m 140.39185,1033.7179 q 0,-0.11 0.0619,-0.189 0.0619,-0.079 0.1925,-0.079 l 0.78718,0 q 0.0412,0 0.0894,0.021 0.0481,0.017 0.0894,0.055 0.0413,0.034 0.0688,0.082 0.0309,0.048 0.0309,0.11 l 0,3.8328 q 0,0.1307 -0.0722,0.1994 -0.0722,0.065 -0.20625,0.065 l -0.78718,0 q -0.25438,0 -0.25438,-0.2647 l 0,-3.8328 z m 0,-1.7393 q 0,-0.1444 0.0619,-0.2029 0.0619,-0.062 0.1925,-0.062 l 0.7975,0 q 0.12031,0 0.1925,0.062 0.0756,0.059 0.0756,0.2029 l 0,0.6703 q 0,0.041 -0.0206,0.089 -0.0172,0.048 -0.0516,0.093 -0.0344,0.045 -0.0859,0.076 -0.0481,0.027 -0.11,0.027 l -0.7975,0 q -0.25438,0 -0.25438,-0.2853 l 0,-0.6703 z"
         style="font-style:normal;font-variant:normal;font-weight:normal;font-stretch:normal;font-size:6.875px;font-family:COCOGOOSE;-inkscape-font-specification:COCOGOOSE;fill:#d5331e;fill-opacity:1"
         id="path4978" />
      <path
         d="m 142.61967,1033.5082 q 0.0447,-0.038 0.0928,-0.048 0.0516,-0.01 0.0962,-0.01 l 0.51906,0 q 0.0619,0 0.10656,0.024 0.0447,0.021 0.0756,0.058 0.0309,0.038 0.0481,0.086 0.0206,0.048 0.0378,0.1 l 0.10657,0.44 q 0.0516,-0.1065 0.14781,-0.2406 0.0997,-0.1375 0.25094,-0.2544 0.15125,-0.1203 0.3575,-0.1993 0.20968,-0.082 0.48468,-0.082 0.39188,0 0.71157,0.1512 0.31968,0.1513 0.54312,0.4125 0.22688,0.2613 0.35063,0.6119 0.12375,0.3472 0.12375,0.7425 l 0,2.2515 q 0,0.1307 -0.0584,0.1994 -0.055,0.065 -0.17875,0.065 l -0.79406,0 q -0.14782,0 -0.20282,-0.048 -0.055,-0.052 -0.055,-0.1959 l 0,-2.2378 q 0,-0.1479 -0.0687,-0.2785 -0.0653,-0.134 -0.17531,-0.2337 -0.11,-0.1032 -0.25094,-0.1616 -0.1375,-0.058 -0.28187,-0.058 -0.12375,0 -0.25438,0.055 -0.12718,0.055 -0.23718,0.1547 -0.10657,0.096 -0.18219,0.2303 -0.0722,0.1306 -0.0825,0.2853 l 0,2.2344 q 0,0.058 -0.0241,0.1168 -0.0206,0.059 -0.0653,0.089 -0.0447,0.027 -0.0859,0.038 -0.0378,0.01 -0.0894,0.01 l -0.77687,0 q -0.14782,0 -0.21313,-0.072 -0.0653,-0.072 -0.0653,-0.1925 l 0,-3.8465 q 0,-0.065 0.0275,-0.1203 0.0309,-0.055 0.0825,-0.086 l -0.0206,0.01 z"
         style="font-style:normal;font-variant:normal;font-weight:normal;font-stretch:normal;font-size:6.875px;font-family:COCOGOOSE;-inkscape-font-specification:COCOGOOSE;fill:#d5331e;fill-opacity:1"
         id="path4980" />
      <path
         d="m 150.60064,1037.6642 q 0.0378,-0.1169 0.0344,-0.2647 0,-0.1513 0,-0.3059 -0.0997,0.1065 -0.20281,0.2268 -0.10313,0.1169 -0.23031,0.22 -0.12375,0.1 -0.28188,0.165 -0.15812,0.065 -0.36781,0.065 -0.46406,0 -0.85938,-0.1581 -0.39531,-0.1581 -0.68406,-0.44 -0.28875,-0.2853 -0.45031,-0.6806 -0.16156,-0.3953 -0.16156,-0.8697 0,-0.4709 0.16156,-0.88 0.16156,-0.4125 0.45031,-0.715 0.28875,-0.3059 0.68406,-0.4778 0.39532,-0.1753 0.85938,-0.1753 0.21312,0 0.38156,0.065 0.17188,0.065 0.30938,0.1684 0.14093,0.1032 0.25437,0.2338 0.11688,0.1272 0.22,0.2544 l 0.13063,-0.4091 q 0.0206,-0.058 0.0378,-0.1066 0.0172,-0.048 0.0447,-0.079 0.0275,-0.034 0.0687,-0.052 0.0447,-0.017 0.11343,-0.017 l 0.51219,0 q 0.0378,0 0.0859,0.01 0.0516,0.01 0.0894,0.048 0.0481,0.038 0.0722,0.082 0.0241,0.045 0.0241,0.1134 l 0,3.4994 q 0,0.5362 -0.17531,0.9556 -0.17531,0.4194 -0.48125,0.7081 -0.3025,0.2888 -0.71844,0.44 -0.41593,0.1513 -0.89375,0.1513 -0.18562,0 -0.39875,-0.034 -0.21312,-0.031 -0.42625,-0.096 -0.20968,-0.065 -0.40906,-0.1684 -0.19594,-0.1 -0.34719,-0.2337 -0.0412,-0.031 -0.0722,-0.072 -0.0309,-0.041 -0.0447,-0.093 -0.0103,-0.052 0,-0.1135 0.0138,-0.058 0.0584,-0.1237 l 0.32656,-0.4503 q 0.0894,-0.096 0.16844,-0.1032 0.0791,-0.01 0.19937,0.082 0.0859,0.082 0.19594,0.1307 0.11344,0.052 0.23031,0.079 0.12031,0.031 0.23375,0.038 0.11688,0.01 0.20969,0.01 0.15469,0 0.32312,-0.041 0.16844,-0.041 0.31282,-0.1238 0.14781,-0.079 0.25781,-0.1959 0.11344,-0.1169 0.15469,-0.2681 z m -1.96625,-2.0419 q 0,0.2303 0.0687,0.4297 0.0722,0.1959 0.20281,0.3403 0.13062,0.1444 0.31281,0.2269 0.18563,0.082 0.40906,0.082 0.22,0 0.4125,-0.076 0.19594,-0.079 0.34032,-0.2166 0.14437,-0.1375 0.23031,-0.3231 0.0894,-0.1857 0.0997,-0.4022 l 0,-0.1135 q -0.0103,-0.2096 -0.0997,-0.3953 -0.0859,-0.189 -0.23031,-0.33 -0.14438,-0.1443 -0.34032,-0.2268 -0.1925,-0.086 -0.4125,-0.086 -0.22343,0 -0.40906,0.089 -0.18219,0.086 -0.31281,0.2337 -0.13063,0.1479 -0.20281,0.3472 -0.0687,0.1994 -0.0687,0.4194 z"
         style="font-style:normal;font-variant:normal;font-weight:normal;font-stretch:normal;font-size:6.875px;font-family:COCOGOOSE;-inkscape-font-specification:COCOGOOSE;fill:#d5331e;fill-opacity:1"
         id="path4982" />
      <path
         d="m 154.88382,1032.4151 q 0,-0.11 0.055,-0.1856 0.055,-0.076 0.18906,-0.076 l 0.84219,0 q 0.0344,0 0.0722,0.021 0.0378,0.017 0.0687,0.052 0.0344,0.034 0.055,0.082 0.0241,0.048 0.0241,0.1065 l 0,5.1356 q 0,0.1307 -0.0756,0.1994 -0.0722,0.065 -0.18906,0.065 l -0.7975,0 q -0.13406,0 -0.18906,-0.065 -0.055,-0.069 -0.055,-0.1994 l 0,-5.1356 z"
         style="font-style:normal;font-variant:normal;font-weight:normal;font-stretch:normal;font-size:6.875px;font-family:COCOGOOSE;-inkscape-font-specification:COCOGOOSE;fill:#d5331e;fill-opacity:1"
         id="path4984" />
      <path
         d="m 161.51164,1037.5611 q 0,0.058 -0.0206,0.1134 -0.0206,0.052 -0.0687,0.082 -0.0378,0.038 -0.0894,0.048 -0.0516,0.01 -0.0894,0.01 l -0.67718,0 q -0.0722,0 -0.11688,-0.017 -0.0447,-0.021 -0.0722,-0.055 -0.0275,-0.034 -0.0481,-0.082 -0.0172,-0.051 -0.0378,-0.11 l -0.0997,-0.2578 q -0.0928,0.093 -0.20281,0.1994 -0.11,0.1031 -0.24407,0.1925 -0.13062,0.089 -0.28531,0.1478 -0.15469,0.062 -0.33,0.062 -0.31281,0 -0.60156,-0.079 -0.28531,-0.079 -0.53625,-0.2234 -0.2475,-0.1478 -0.45031,-0.3506 -0.20282,-0.2063 -0.35063,-0.4572 -0.14437,-0.251 -0.22344,-0.5397 -0.0791,-0.2922 -0.0791,-0.6084 0,-0.4779 0.17531,-0.8869 0.17532,-0.4125 0.47782,-0.715 0.3025,-0.306 0.71156,-0.4778 0.40906,-0.1753 0.87656,-0.1753 0.21313,0 0.39188,0.065 0.17875,0.062 0.32312,0.165 0.14781,0.1031 0.26469,0.2337 0.12031,0.1306 0.21312,0.2647 l 0.13407,-0.4159 q 0.0344,-0.086 0.055,-0.1375 0.0241,-0.055 0.0481,-0.079 0.0275,-0.027 0.0653,-0.034 0.0378,-0.01 0.10657,-0.01 l 0.51218,0 q 0.0378,0 0.0894,0.01 0.0516,0.01 0.0894,0.048 0.0481,0.038 0.0687,0.086 0.0206,0.048 0.0206,0.11 l 0,3.8741 z m -3.38594,-1.925 q 0,0.2268 0.0687,0.4262 0.0722,0.1959 0.20281,0.3403 0.13063,0.1444 0.31282,0.2303 0.18562,0.082 0.40906,0.082 0.23031,0 0.42625,-0.082 0.19937,-0.086 0.34375,-0.2303 0.14781,-0.1444 0.23031,-0.3403 0.0825,-0.1994 0.0825,-0.4262 0,-0.22 -0.0825,-0.4194 -0.0825,-0.1994 -0.23031,-0.3506 -0.14438,-0.1513 -0.34375,-0.2372 -0.19594,-0.089 -0.42625,-0.089 -0.22344,0 -0.40906,0.089 -0.18219,0.086 -0.31282,0.2372 -0.13062,0.1512 -0.20281,0.3506 -0.0687,0.1994 -0.0687,0.4194 z"
         style="font-style:normal;font-variant:normal;font-weight:normal;font-stretch:normal;font-size:6.875px;font-family:COCOGOOSE;-inkscape-font-specification:COCOGOOSE;fill:#d5331e;fill-opacity:1"
         id="path4986" />
      <path
         d="m 162.42558,1033.5082 q 0.0447,-0.038 0.0928,-0.048 0.0516,-0.01 0.0962,-0.01 l 0.51906,0 q 0.0619,0 0.10656,0.024 0.0447,0.021 0.0756,0.058 0.0309,0.038 0.0481,0.086 0.0206,0.048 0.0378,0.1 l 0.10657,0.44 q 0.0516,-0.1065 0.14781,-0.2406 0.0997,-0.1375 0.25094,-0.2544 0.15125,-0.1203 0.3575,-0.1993 0.20968,-0.082 0.48468,-0.082 0.39188,0 0.71157,0.1512 0.31968,0.1513 0.54312,0.4125 0.22688,0.2613 0.35063,0.6119 0.12375,0.3472 0.12375,0.7425 l 0,2.2515 q 0,0.1307 -0.0584,0.1994 -0.055,0.065 -0.17875,0.065 l -0.79406,0 q -0.14782,0 -0.20282,-0.048 -0.055,-0.052 -0.055,-0.1959 l 0,-2.2378 q 0,-0.1479 -0.0688,-0.2785 -0.0653,-0.134 -0.17531,-0.2337 -0.11,-0.1032 -0.25094,-0.1616 -0.1375,-0.058 -0.28187,-0.058 -0.12375,0 -0.25438,0.055 -0.12718,0.055 -0.23718,0.1547 -0.10657,0.096 -0.18219,0.2303 -0.0722,0.1306 -0.0825,0.2853 l 0,2.2344 q 0,0.058 -0.0241,0.1168 -0.0206,0.059 -0.0653,0.089 -0.0447,0.027 -0.0859,0.038 -0.0378,0.01 -0.0894,0.01 l -0.77687,0 q -0.14782,0 -0.21313,-0.072 -0.0653,-0.072 -0.0653,-0.1925 l 0,-3.8465 q 0,-0.065 0.0275,-0.1203 0.0309,-0.055 0.0825,-0.086 l -0.0206,0.01 z"
         style="font-style:normal;font-variant:normal;font-weight:normal;font-stretch:normal;font-size:6.875px;font-family:COCOGOOSE;-inkscape-font-specification:COCOGOOSE;fill:#d5331e;fill-opacity:1"
         id="path4988" />
      <path
         d="m 170.40654,1037.6642 q 0.0378,-0.1169 0.0344,-0.2647 0,-0.1513 0,-0.3059 -0.0997,0.1065 -0.20281,0.2268 -0.10313,0.1169 -0.23032,0.22 -0.12375,0.1 -0.28187,0.165 -0.15813,0.065 -0.36781,0.065 -0.46407,0 -0.85938,-0.1581 -0.39531,-0.1581 -0.68406,-0.44 -0.28875,-0.2853 -0.45031,-0.6806 -0.16157,-0.3953 -0.16157,-0.8697 0,-0.4709 0.16157,-0.88 0.16156,-0.4125 0.45031,-0.715 0.28875,-0.3059 0.68406,-0.4778 0.39531,-0.1753 0.85938,-0.1753 0.21312,0 0.38156,0.065 0.17187,0.065 0.30937,0.1684 0.14094,0.1032 0.25438,0.2338 0.11687,0.1272 0.22,0.2544 l 0.13062,-0.4091 q 0.0206,-0.058 0.0378,-0.1066 0.0172,-0.048 0.0447,-0.079 0.0275,-0.034 0.0688,-0.052 0.0447,-0.017 0.11344,-0.017 l 0.51219,0 q 0.0378,0 0.0859,0.01 0.0516,0.01 0.0894,0.048 0.0481,0.038 0.0722,0.082 0.0241,0.045 0.0241,0.1134 l 0,3.4994 q 0,0.5362 -0.17531,0.9556 -0.17531,0.4194 -0.48125,0.7081 -0.3025,0.2888 -0.71844,0.44 -0.41594,0.1513 -0.89375,0.1513 -0.18562,0 -0.39875,-0.034 -0.21312,-0.031 -0.42625,-0.096 -0.20969,-0.065 -0.40906,-0.1684 -0.19594,-0.1 -0.34719,-0.2337 -0.0413,-0.031 -0.0722,-0.072 -0.0309,-0.041 -0.0447,-0.093 -0.0103,-0.052 0,-0.1135 0.0137,-0.058 0.0584,-0.1237 l 0.32657,-0.4503 q 0.0894,-0.096 0.16843,-0.1032 0.0791,-0.01 0.19938,0.082 0.0859,0.082 0.19594,0.1307 0.11343,0.052 0.23031,0.079 0.12031,0.031 0.23375,0.038 0.11687,0.01 0.20969,0.01 0.15468,0 0.32312,-0.041 0.16844,-0.041 0.31281,-0.1238 0.14782,-0.079 0.25782,-0.1959 0.11343,-0.1169 0.15468,-0.2681 z m -1.96625,-2.0419 q 0,0.2303 0.0687,0.4297 0.0722,0.1959 0.20282,0.3403 0.13062,0.1444 0.31281,0.2269 0.18562,0.082 0.40906,0.082 0.22,0 0.4125,-0.076 0.19594,-0.079 0.34031,-0.2166 0.14438,-0.1375 0.23032,-0.3231 0.0894,-0.1857 0.0997,-0.4022 l 0,-0.1135 q -0.0103,-0.2096 -0.0997,-0.3953 -0.0859,-0.189 -0.23032,-0.33 -0.14437,-0.1443 -0.34031,-0.2268 -0.1925,-0.086 -0.4125,-0.086 -0.22344,0 -0.40906,0.089 -0.18219,0.086 -0.31281,0.2337 -0.13063,0.1479 -0.20282,0.3472 -0.0687,0.1994 -0.0687,0.4194 z"
         style="font-style:normal;font-variant:normal;font-weight:normal;font-stretch:normal;font-size:6.875px;font-family:COCOGOOSE;-inkscape-font-specification:COCOGOOSE;fill:#d5331e;fill-opacity:1"
         id="path4990" />
      <path
         d="m 176.58067,1037.757 q -0.0447,0.038 -0.0962,0.048 -0.0481,0.01 -0.0928,0.01 l -0.51906,0 q -0.0619,0 -0.10657,-0.021 -0.0447,-0.024 -0.0756,-0.062 -0.0309,-0.038 -0.0516,-0.086 -0.0206,-0.048 -0.0344,-0.1 l -0.10656,-0.44 q -0.0516,0.1066 -0.15125,0.2441 -0.0962,0.134 -0.2475,0.2543 -0.15125,0.1169 -0.36094,0.1994 -0.20969,0.079 -0.48125,0.079 -0.39187,0 -0.71156,-0.1513 -0.31969,-0.1512 -0.54656,-0.4125 -0.22344,-0.2612 -0.34719,-0.6084 -0.12375,-0.3506 -0.12375,-0.7459 l 0,-2.2516 q 0,-0.1306 0.055,-0.1959 0.0584,-0.069 0.18219,-0.069 l 0.79406,0 q 0.14781,0 0.20281,0.052 0.055,0.048 0.055,0.1925 l 0,2.2378 q 0,0.1478 0.0653,0.2819 0.0687,0.1306 0.17875,0.2337 0.11,0.1 0.2475,0.1581 0.14094,0.059 0.28532,0.059 0.12375,0 0.25437,-0.059 0.13406,-0.058 0.24406,-0.1547 0.11344,-0.1 0.18563,-0.2303 0.0722,-0.134 0.0722,-0.2818 l 0,-2.2344 q 0,-0.058 0.0206,-0.1169 0.0241,-0.058 0.0688,-0.089 0.0447,-0.028 0.0825,-0.038 0.0413,-0.01 0.0928,-0.01 l 0.77688,0 q 0.14781,0 0.21312,0.072 0.0653,0.072 0.0653,0.1925 l 0,3.8466 q 0,0.065 -0.0309,0.1203 -0.0275,0.055 -0.0791,0.086 l 0.0206,-0.01 z"
         style="font-style:normal;font-variant:normal;font-weight:normal;font-stretch:normal;font-size:6.875px;font-family:COCOGOOSE;-inkscape-font-specification:COCOGOOSE;fill:#d5331e;fill-opacity:1"
         id="path4992" />
      <path
         d="m 181.98893,1037.5611 q 0,0.058 -0.0206,0.1134 -0.0206,0.052 -0.0687,0.082 -0.0378,0.038 -0.0894,0.048 -0.0516,0.01 -0.0894,0.01 l -0.67719,0 q -0.0722,0 -0.11687,-0.017 -0.0447,-0.021 -0.0722,-0.055 -0.0275,-0.034 -0.0481,-0.082 -0.0172,-0.051 -0.0378,-0.11 l -0.0997,-0.2578 q -0.0928,0.093 -0.20281,0.1994 -0.11,0.1031 -0.24406,0.1925 -0.13063,0.089 -0.28531,0.1478 -0.15469,0.062 -0.33,0.062 -0.31282,0 -0.60157,-0.079 -0.28531,-0.079 -0.53625,-0.2234 -0.2475,-0.1478 -0.45031,-0.3506 -0.20281,-0.2063 -0.35062,-0.4572 -0.14438,-0.251 -0.22344,-0.5397 -0.0791,-0.2922 -0.0791,-0.6084 0,-0.4779 0.17531,-0.8869 0.17531,-0.4125 0.47781,-0.715 0.3025,-0.306 0.71156,-0.4778 0.40907,-0.1753 0.87657,-0.1753 0.21312,0 0.39187,0.065 0.17875,0.062 0.32313,0.165 0.14781,0.1031 0.26468,0.2337 0.12032,0.1306 0.21313,0.2647 l 0.13406,-0.4159 q 0.0344,-0.086 0.055,-0.1375 0.0241,-0.055 0.0481,-0.079 0.0275,-0.027 0.0653,-0.034 0.0378,-0.01 0.10656,-0.01 l 0.51219,0 q 0.0378,0 0.0894,0.01 0.0516,0.01 0.0894,0.048 0.0481,0.038 0.0687,0.086 0.0206,0.048 0.0206,0.11 l 0,3.8741 z m -3.38593,-1.925 q 0,0.2268 0.0687,0.4262 0.0722,0.1959 0.20281,0.3403 0.13062,0.1444 0.31281,0.2303 0.18563,0.082 0.40906,0.082 0.23032,0 0.42625,-0.082 0.19938,-0.086 0.34375,-0.2303 0.14782,-0.1444 0.23032,-0.3403 0.0825,-0.1994 0.0825,-0.4262 0,-0.22 -0.0825,-0.4194 -0.0825,-0.1994 -0.23032,-0.3506 -0.14437,-0.1513 -0.34375,-0.2372 -0.19593,-0.089 -0.42625,-0.089 -0.22343,0 -0.40906,0.089 -0.18219,0.086 -0.31281,0.2372 -0.13063,0.1512 -0.20281,0.3506 -0.0687,0.1994 -0.0687,0.4194 z"
         style="font-style:normal;font-variant:normal;font-weight:normal;font-stretch:normal;font-size:6.875px;font-family:COCOGOOSE;-inkscape-font-specification:COCOGOOSE;fill:#d5331e;fill-opacity:1"
         id="path4994" />
      <path
         d="m 185.976,1037.6642 q 0.0378,-0.1169 0.0344,-0.2647 0,-0.1513 0,-0.3059 -0.0997,0.1065 -0.20281,0.2268 -0.10313,0.1169 -0.23032,0.22 -0.12375,0.1 -0.28187,0.165 -0.15813,0.065 -0.36781,0.065 -0.46407,0 -0.85938,-0.1581 -0.39531,-0.1581 -0.68406,-0.44 -0.28875,-0.2853 -0.45031,-0.6806 -0.16157,-0.3953 -0.16157,-0.8697 0,-0.4709 0.16157,-0.88 0.16156,-0.4125 0.45031,-0.715 0.28875,-0.3059 0.68406,-0.4778 0.39531,-0.1753 0.85938,-0.1753 0.21312,0 0.38156,0.065 0.17187,0.065 0.30937,0.1684 0.14094,0.1032 0.25438,0.2338 0.11687,0.1272 0.22,0.2544 l 0.13062,-0.4091 q 0.0206,-0.058 0.0378,-0.1066 0.0172,-0.048 0.0447,-0.079 0.0275,-0.034 0.0687,-0.052 0.0447,-0.017 0.11344,-0.017 l 0.51219,0 q 0.0378,0 0.0859,0.01 0.0516,0.01 0.0894,0.048 0.0481,0.038 0.0722,0.082 0.0241,0.045 0.0241,0.1134 l 0,3.4994 q 0,0.5362 -0.17531,0.9556 -0.17531,0.4194 -0.48125,0.7081 -0.3025,0.2888 -0.71844,0.44 -0.41594,0.1513 -0.89375,0.1513 -0.18562,0 -0.39875,-0.034 -0.21312,-0.031 -0.42625,-0.096 -0.20969,-0.065 -0.40906,-0.1684 -0.19594,-0.1 -0.34719,-0.2337 -0.0413,-0.031 -0.0722,-0.072 -0.0309,-0.041 -0.0447,-0.093 -0.0103,-0.052 0,-0.1135 0.0137,-0.058 0.0584,-0.1237 l 0.32657,-0.4503 q 0.0894,-0.096 0.16843,-0.1032 0.0791,-0.01 0.19938,0.082 0.0859,0.082 0.19594,0.1307 0.11343,0.052 0.23031,0.079 0.12031,0.031 0.23375,0.038 0.11687,0.01 0.20969,0.01 0.15468,0 0.32312,-0.041 0.16844,-0.041 0.31281,-0.1238 0.14782,-0.079 0.25782,-0.1959 0.11343,-0.1169 0.15468,-0.2681 z m -1.96625,-2.0419 q 0,0.2303 0.0687,0.4297 0.0722,0.1959 0.20282,0.3403 0.13062,0.1444 0.31281,0.2269 0.18562,0.082 0.40906,0.082 0.22,0 0.4125,-0.076 0.19594,-0.079 0.34031,-0.2166 0.14438,-0.1375 0.23032,-0.3231 0.0894,-0.1857 0.0997,-0.4022 l 0,-0.1135 q -0.0103,-0.2096 -0.0997,-0.3953 -0.0859,-0.189 -0.23032,-0.33 -0.14437,-0.1443 -0.34031,-0.2268 -0.1925,-0.086 -0.4125,-0.086 -0.22344,0 -0.40906,0.089 -0.18219,0.086 -0.31281,0.2337 -0.13063,0.1479 -0.20282,0.3472 -0.0687,0.1994 -0.0687,0.4194 z"
         style="font-style:normal;font-variant:normal;font-weight:normal;font-stretch:normal;font-size:6.875px;font-family:COCOGOOSE;-inkscape-font-specification:COCOGOOSE;fill:#d5331e;fill-opacity:1"
         id="path4996" />
      <path
         d="m 191.7481,1037.2929 q -0.3025,0.2785 -0.68062,0.4366 -0.37813,0.1547 -0.80094,0.1547 -0.47094,0 -0.89031,-0.1719 -0.41938,-0.1719 -0.73563,-0.4744 -0.31625,-0.3059 -0.50187,-0.7184 -0.18563,-0.4125 -0.18563,-0.8972 0,-0.3025 0.0722,-0.5844 0.0756,-0.2853 0.20969,-0.5328 0.1375,-0.2475 0.33,-0.4537 0.19593,-0.2097 0.43656,-0.3575 0.24062,-0.1478 0.5225,-0.2303 0.28187,-0.082 0.59469,-0.082 0.28531,0 0.55343,0.076 0.26813,0.076 0.50188,0.2131 0.23719,0.1375 0.43312,0.33 0.19594,0.1925 0.33688,0.4228 0.14094,0.2269 0.21656,0.4881 0.0791,0.2579 0.0791,0.5329 0,0.1787 -0.007,0.2921 -0.003,0.1135 -0.0516,0.1822 -0.0481,0.065 -0.16157,0.093 -0.11,0.024 -0.32656,0.024 l -2.475,0 q 0.0344,0.22 0.1375,0.3678 0.10656,0.1478 0.24406,0.2372 0.1375,0.086 0.29219,0.1238 0.15469,0.038 0.29219,0.038 0.12375,0 0.25437,-0.024 0.13063,-0.027 0.25094,-0.069 0.12375,-0.045 0.22344,-0.1 0.10312,-0.058 0.165,-0.1203 0.055,-0.045 0.0928,-0.065 0.0412,-0.024 0.0859,-0.024 0.0447,0 0.0894,0.031 0.0481,0.031 0.10657,0.089 l 0.36437,0.4125 q 0.0378,0.045 0.0481,0.082 0.0103,0.034 0.0103,0.072 0,0.069 -0.0378,0.1203 -0.0378,0.048 -0.0894,0.086 z m -1.65344,-2.8634 q -0.13406,0 -0.26125,0.055 -0.12375,0.052 -0.23375,0.1409 -0.11,0.089 -0.19937,0.2028 -0.0859,0.1135 -0.14094,0.2304 l 1.75656,0 q -0.0722,-0.1341 -0.15812,-0.2475 -0.0825,-0.1135 -0.1925,-0.1994 -0.10656,-0.086 -0.2475,-0.1341 -0.1375,-0.048 -0.32313,-0.048 z"
         style="font-style:normal;font-variant:normal;font-weight:normal;font-stretch:normal;font-size:6.875px;font-family:COCOGOOSE;-inkscape-font-specification:COCOGOOSE;fill:#d5331e;fill-opacity:1"
         id="path4998" />
    </g>
  </g>
</svg>
