<?xml version="1.0" encoding="UTF-8" standalone="no"?>
<!-- Created with Inkscape (http://www.inkscape.org/) -->

<svg
   xmlns:dc="http://purl.org/dc/elements/1.1/"
   xmlns:cc="http://creativecommons.org/ns#"
   xmlns:rdf="http://www.w3.org/1999/02/22-rdf-syntax-ns#"
   xmlns:svg="http://www.w3.org/2000/svg"
   xmlns="http://www.w3.org/2000/svg"
   xmlns:sodipodi="http://sodipodi.sourceforge.net/DTD/sodipodi-0.dtd"
   xmlns:inkscape="http://www.inkscape.org/namespaces/inkscape"
   width="200"
   height="100"
   viewBox="0 0 200 100"
   id="svg2"
   version="1.1"
   inkscape:version="0.91 r13725"
   sodipodi:docname="cornflakes-large.svg">
  <defs
     id="defs4" />
  <sodipodi:namedview
     id="base"
     pagecolor="#ffffff"
     bordercolor="#666666"
     borderopacity="1.0"
     inkscape:pageopacity="0.0"
     inkscape:pageshadow="2"
     inkscape:zoom="6.9683163"
     inkscape:cx="102.50017"
     inkscape:cy="41.650832"
     inkscape:document-units="px"
     inkscape:current-layer="layer1"
     showgrid="false"
     units="px"
     inkscape:window-width="1920"
     inkscape:window-height="1038"
     inkscape:window-x="1920"
     inkscape:window-y="0"
     inkscape:window-maximized="1" />
  <metadata
     id="metadata7">
    <rdf:RDF>
      <cc:Work
         rdf:about="">
        <dc:format>image/svg+xml</dc:format>
        <dc:type
           rdf:resource="http://purl.org/dc/dcmitype/StillImage" />
        <dc:title></dc:title>
      </cc:Work>
    </rdf:RDF>
  </metadata>
  <g
     inkscape:label="Layer 1"
     inkscape:groupmode="layer"
     id="layer1"
     transform="translate(0,-952.36216)">
    <rect
       style="opacity:1;fill:#ffd900;fill-opacity:1;fill-rule:nonzero;stroke:none;stroke-width:3.54330707;stroke-linejoin:miter;stroke-miterlimit:4;stroke-dasharray:none;stroke-opacity:1"
       id="rect4749"
       width="200"
       height="100"
       x="0"
       y="952.36218" />
    <path
       id="path4711"
       d="m 54.444471,965.28303 c 0.96636,0 1.93272,0 2.900063,0 0.158275,0.0197 0.315565,0.0501 0.474824,0.058 4.00307,0.20349 8.012039,0.32932 12.009209,0.62425 5.28598,0.39126 10.516907,1.20819 15.678038,2.42917 3.889033,0.91917 7.704339,2.0674 11.295504,3.85856 2.042826,1.01944 3.964731,2.21682 5.465891,3.98144 1.00666,1.18362 1.70169,2.52552 1.70267,4.10531 9.1e-4,0.84348 -0.21234,1.68498 -0.30868,2.53043 -0.48859,4.29307 -1.53359,8.44754 -3.17729,12.44182 -6.665239,16.18929 -20.905038,27.22519 -38.231687,29.62589 -5.523883,0.7658 -11.027121,0.5583 -16.468427,-0.643 -11.3535,-2.5068 -20.649432,-8.3511 -27.831757,-17.4858 -5.200453,-6.6131 -8.3826578,-14.12484 -9.6311596,-22.45054 -0.1759692,-1.1728 -0.3735673,-2.34266 -0.5613345,-3.5135 0,-0.22512 0,-0.45124 0,-0.67636 0.1425467,-0.5751 0.2310222,-1.17084 0.4374675,-1.72136 0.6950316,-1.85111 2.0536376,-3.16746 3.6147566,-4.29405 2.396731,-1.7312 5.082484,-2.88729 7.856714,-3.84774 6.528583,-2.2591 13.290154,-3.40439 20.131353,-4.14956 4.740375,-0.51611 9.497461,-0.76974 14.265361,-0.81692 0.126816,-9.2e-4 0.25265,-0.0364 0.378484,-0.0561 z m 1.32813,3.2697 c -4.241956,-0.0256 -9.291016,0.18972 -14.328278,0.67734 -5.196519,0.50235 -10.346836,1.27601 -15.414573,2.54418 -3.454516,0.86412 -6.844149,1.92387 -10.017506,3.57543 -1.49132,0.77566 -2.91186,1.6614 -4.021748,2.95709 -1.287826,1.50214 -1.281927,2.90302 -10e-4,4.41498 0.96341,1.13642 2.178488,1.94943 3.463363,2.66216 2.966913,1.64664 6.161897,2.70541 9.421765,3.58035 6.286746,1.68696 12.705226,2.58154 19.179739,3.07208 3.143865,0.23796 6.30051,0.33528 9.453223,0.41196 5.154248,0.12479 10.305546,-0.03 15.438166,-0.50927 3.05244,-0.28512 6.095049,-0.69898 9.130776,-1.13445 3.909677,-0.56039 7.757422,-1.42842 11.523573,-2.62187 2.852874,-0.90442 5.637916,-1.97401 8.138854,-3.66292 0.992899,-0.67046 1.902241,-1.43136 2.546155,-2.46752 0.65571,-1.05385 0.67635,-2.12835 -0.0472,-3.1183 -0.497438,-0.68029 -1.092192,-1.31928 -1.747899,-1.8472 -2.006458,-1.61125 -4.345184,-2.61792 -6.739943,-3.49187 -5.45507,-1.99073 -11.120516,-3.08095 -16.854776,-3.84872 -6.07342,-0.81399 -12.178298,-1.17772 -19.122721,-1.19345 z"
       inkscape:connector-curvature="0"
       style="fill:#d5331e;fill-opacity:1" />
    <path
       id="path4713"
       d="m 7.7803004,992.80659 c 0.1564763,0.97572 0.3211452,1.95063 0.4677906,2.92799 1.0412643,6.93822 3.69317,13.19812 8.026174,18.70912 5.985426,7.6125 13.731417,12.4829 23.193732,14.572 4.535358,1.0011 9.120689,1.174 13.724044,0.5358 14.439248,-2.0006 26.306056,-11.1975 31.860558,-24.6889 1.370603,-3.3286 2.240644,-6.78989 2.64781,-10.36836 0.08029,-0.70374 0.257244,-1.40583 0.257244,-2.10875 -8.19e-4,-1.31653 -0.579208,-2.4348 -1.418938,-3.42118 -1.250991,-1.47055 -2.853441,-2.46921 -4.555019,-3.31795 -2.992713,-1.49267 -6.173034,-2.44955 -9.41316,-3.21555 -4.301053,-1.01669 -8.660272,-1.6983 -13.065369,-2.02436 -3.330243,-0.2466 -6.671137,-0.35064 -10.007935,-0.52022 -0.132718,-0.007 -0.263798,-0.032 -0.395696,-0.0483 12.992455,0 25.98573,0 38.982281,0 0,16.72167 0,33.44327 0,50.17317 -26.765654,0 -53.534585,0 -80.3035166,0 0,-12.4001 0,-24.8027 0,-37.20447 z"
       display="none"
       inkscape:connector-curvature="0"
       style="display:none;fill:#000000" />
    <path
       id="path4715"
       d="m 46.685573,979.83789 c -0.104864,0.0164 -0.209728,0.0451 -0.314591,0.0467 -3.973354,0.0393 -7.937695,0.25069 -11.888109,0.68079 -5.701148,0.62099 -11.335936,1.57542 -16.776563,3.45805 -2.311918,0.79958 -4.550104,1.76384 -6.547431,3.20654 -1.3009655,0.93967 -2.4331663,2.03583 -3.0123747,3.57847 -0.1728614,0.45878 -0.2457745,0.95524 -0.3645654,1.4345 0,-4.13146 0,-8.26293 0,-12.40423 12.9670591,-8.2e-4 25.9357561,-8.2e-4 38.9036341,-8.2e-4 z"
       display="none"
       inkscape:connector-curvature="0"
       style="display:none;fill:#000000" />
    <path
       id="path4717"
       d="m 47.792377,982.56271 c 5.787169,0.0139 10.874699,0.31705 15.936014,0.99457 4.777855,0.63983 9.499182,1.54837 14.046008,3.20735 1.995689,0.72831 3.945499,1.5664 5.616765,2.90997 0.546439,0.43912 1.042084,0.97245 1.456623,1.53937 0.603786,0.82416 0.585763,1.7196 0.03932,2.59865 -0.536607,0.86349 -1.295231,1.49759 -2.121852,2.05632 -2.084167,1.40665 -4.405097,2.29881 -6.782555,3.05251 -3.139359,0.99539 -6.345896,1.71795 -9.603226,2.18495 -2.529838,0.3629 -5.065411,0.7078 -7.609177,0.9454 -4.277294,0.3998 -8.570154,0.5292 -12.865472,0.4244 -2.627328,-0.064 -5.257934,-0.1442 -7.877889,-0.3433 -5.395568,-0.4088 -10.745258,-1.1543 -15.98353,-2.56014 -2.716627,-0.72913 -5.379183,-1.61146 -7.851674,-2.9837 -1.070757,-0.59396 -2.084167,-1.27148 -2.886211,-2.21853 -1.06748,-1.26 -1.072396,-2.42743 8.19e-4,-3.67924 0.92575,-1.07977 2.108745,-1.81791 3.351544,-2.4643 2.644533,-1.37634 5.4693,-2.25949 8.348138,-2.97961 4.223224,-1.05683 8.516084,-1.70157 12.84581,-2.12021 4.197827,-0.40635 8.405486,-0.58576 11.940541,-0.56446 z"
       display="none"
       inkscape:connector-curvature="0"
       style="display:none;fill:#000000" />
    <text
       xml:space="preserve"
       style="font-style:normal;font-weight:normal;font-size:17.5px;line-height:125%;font-family:sans-serif;letter-spacing:0px;word-spacing:0px;fill:#d5331e;fill-opacity:1;stroke:none;stroke-width:1px;stroke-linecap:butt;stroke-linejoin:miter;stroke-opacity:1"
       x="188.57216"
       y="988.3833"
       id="text4768"
       sodipodi:linespacing="125%"><tspan
         sodipodi:role="line"
         id="tspan4770"
         x="188.57216"
         y="988.3833"
         style="font-style:normal;font-variant:normal;font-weight:normal;font-stretch:normal;font-size:22.5px;font-family:COCOGOOSE;-inkscape-font-specification:COCOGOOSE;text-align:end;text-anchor:end;fill:#d5331e;fill-opacity:1">corn</tspan><tspan
         sodipodi:role="line"
         x="188.57216"
         y="1016.5083"
         style="font-style:normal;font-variant:normal;font-weight:normal;font-stretch:normal;font-size:22.5px;font-family:COCOGOOSE;-inkscape-font-specification:COCOGOOSE;text-align:end;text-anchor:end;fill:#d5331e;fill-opacity:1"
         id="tspan4824">flakes</tspan></text>
    <text
       xml:space="preserve"
       style="font-style:normal;font-weight:normal;font-size:22.5px;line-height:125%;font-family:sans-serif;letter-spacing:0px;word-spacing:0px;fill:#d5331e;fill-opacity:1;stroke:none;stroke-width:1px;stroke-linecap:butt;stroke-linejoin:miter;stroke-opacity:1"
       x="10.888552"
       y="1037.8154"
       id="text4826"
       sodipodi:linespacing="125%"><tspan
         sodipodi:role="line"
         id="tspan4828"
         x="10.888552"
         y="1037.8154"
         style="font-style:normal;font-variant:normal;font-weight:normal;font-stretch:normal;font-size:6.875px;font-family:COCOGOOSE;-inkscape-font-specification:COCOGOOSE;fill:#d5331e;fill-opacity:1">a functional codegolf programming language</tspan></text>
  </g>
</svg>
