<?xml version="1.0" encoding="UTF-8" standalone="no"?>
<!-- Created with Inkscape (http://www.inkscape.org/) -->

<svg
   xmlns:dc="http://purl.org/dc/elements/1.1/"
   xmlns:cc="http://creativecommons.org/ns#"
   xmlns:rdf="http://www.w3.org/1999/02/22-rdf-syntax-ns#"
   xmlns:svg="http://www.w3.org/2000/svg"
   xmlns="http://www.w3.org/2000/svg"
   xmlns:sodipodi="http://sodipodi.sourceforge.net/DTD/sodipodi-0.dtd"
   xmlns:inkscape="http://www.inkscape.org/namespaces/inkscape"
   width="100"
   height="100"
   viewBox="0 0 100 100"
   id="svg2"
   version="1.1"
   inkscape:version="0.91 r13725"
   sodipodi:docname="cornflakes-small.svg"
   inkscape:export-filename="/home/alex/cornflakes/logo/cornflakes-small.png"
   inkscape:export-xdpi="90"
   inkscape:export-ydpi="90">
  <defs
     id="defs4" />
  <sodipodi:namedview
     id="base"
     pagecolor="#ffffff"
     bordercolor="#666666"
     borderopacity="1.0"
     inkscape:pageopacity="0.0"
     inkscape:pageshadow="2"
     inkscape:zoom="4.9273437"
     inkscape:cx="119.48984"
     inkscape:cy="70.465651"
     inkscape:document-units="px"
     inkscape:current-layer="layer1"
     showgrid="false"
     units="px"
     inkscape:window-width="1841"
     inkscape:window-height="1038"
     inkscape:window-x="79"
     inkscape:window-y="0"
     inkscape:window-maximized="1" />
  <metadata
     id="metadata7">
    <rdf:RDF>
      <cc:Work
         rdf:about="">
        <dc:format>image/svg+xml</dc:format>
        <dc:type
           rdf:resource="http://purl.org/dc/dcmitype/StillImage" />
        <dc:title></dc:title>
      </cc:Work>
    </rdf:RDF>
  </metadata>
  <g
     inkscape:label="Layer 1"
     inkscape:groupmode="layer"
     id="layer1"
     transform="translate(0,-952.36216)">
    <rect
       style="opacity:1;fill:#ffd900;fill-opacity:1;fill-rule:nonzero;stroke:none;stroke-width:3.54330707;stroke-linejoin:miter;stroke-miterlimit:4;stroke-dasharray:none;stroke-opacity:1"
       id="rect4749"
       width="100"
       height="100"
       x="0"
       y="952.36218" />
    <path
       id="path4711"
       d="m 48.670134,965.75643 c 0.904364,0 1.808728,0 2.714012,0 0.148121,0.0184 0.29532,0.0469 0.444362,0.0543 3.746256,0.19043 7.498032,0.30819 11.238767,0.5842 4.946862,0.36616 9.842202,1.13068 14.672225,2.27333 3.639535,0.8602 7.210073,1.93477 10.570849,3.61102 1.91177,0.95403 3.710376,2.0746 5.115227,3.72601 0.942078,1.10768 1.592519,2.3635 1.593436,3.84194 8.52e-4,0.78936 -0.198717,1.57688 -0.288876,2.36809 -0.457245,4.01765 -1.435204,7.90559 -2.973449,11.64361 -6.237636,15.15067 -19.563891,25.47857 -35.778962,27.72527 -5.169502,0.7167 -10.319684,0.5225 -15.411907,-0.6017 -10.625125,-2.346 -19.324683,-7.8154 -26.046231,-16.364 -4.8668215,-6.18887 -7.8448741,-13.21873 -9.0132792,-21.0103 -0.16468,-1.09756 -0.3496014,-2.19237 -0.5253225,-3.28809 0,-0.21068 0,-0.42229 0,-0.63297 0.1334017,-0.53821 0.2162011,-1.09573 0.4094021,-1.61093 0.6504423,-1.73235 1.9218881,-2.96425 3.3828543,-4.01857 2.2429703,-1.62013 4.7564203,-2.70205 7.3526723,-3.60089 6.109746,-2.11417 12.437534,-3.18598 18.839841,-3.88334 4.436259,-0.483 8.888158,-0.72036 13.350177,-0.76452 0.11868,-8.6e-4 0.236441,-0.0341 0.354202,-0.0525 z m 1.242925,3.05993 c -3.969816,-0.024 -8.694957,0.17755 -13.409058,0.63389 -4.86314,0.47012 -9.683042,1.19415 -14.425662,2.38096 -3.232894,0.80868 -6.405068,1.80045 -9.37484,3.34605 -1.395645,0.7259 -2.7250517,1.55481 -3.7637357,2.76738 -1.205206,1.40577 -1.1996853,2.71678 -9.358e-4,4.13174 0.9016031,1.06351 2.0387285,1.82437 3.2411735,2.49137 2.776573,1.541 5.766585,2.53185 8.817318,3.35066 5.883425,1.57873 11.890132,2.41592 17.949277,2.87499 2.942173,0.22269 5.896306,0.31377 8.846759,0.38553 4.823581,0.11679 9.644401,-0.0281 14.447741,-0.4766 2.856613,-0.26683 5.704026,-0.65413 8.544998,-1.06167 3.658855,-0.52444 7.25975,-1.33678 10.784287,-2.45366 2.66985,-0.8464 5.276219,-1.84737 7.616711,-3.42793 0.929201,-0.62745 1.780204,-1.33953 2.382811,-2.30922 0.613641,-0.98624 0.632957,-1.99181 -0.04419,-2.91825 -0.465527,-0.63664 -1.022125,-1.23464 -1.635766,-1.72869 -1.877735,-1.50788 -4.066422,-2.44997 -6.307547,-3.26785 -5.105104,-1.86302 -10.407087,-2.8833 -15.77347,-3.60181 -5.683784,-0.76177 -11.397008,-1.10217 -17.895917,-1.11689 z"
       inkscape:connector-curvature="0"
       style="fill:#d5331e;fill-opacity:1" />
    <path
       id="path4713"
       d="m 7.7803004,992.80659 c 0.1564763,0.97572 0.3211452,1.95063 0.4677906,2.92799 1.0412643,6.93822 3.69317,13.19812 8.026174,18.70912 5.985426,7.6125 13.731417,12.4829 23.193732,14.572 4.535358,1.0011 9.120689,1.174 13.724044,0.5358 14.439248,-2.0006 26.306056,-11.1975 31.860558,-24.6889 1.370603,-3.3286 2.240644,-6.78989 2.64781,-10.36836 0.08029,-0.70374 0.257244,-1.40583 0.257244,-2.10875 -8.19e-4,-1.31653 -0.579208,-2.4348 -1.418938,-3.42118 -1.250991,-1.47055 -2.853441,-2.46921 -4.555019,-3.31795 -2.992713,-1.49267 -6.173034,-2.44955 -9.41316,-3.21555 -4.301053,-1.01669 -8.660272,-1.6983 -13.065369,-2.02436 -3.330243,-0.2466 -6.671137,-0.35064 -10.007935,-0.52022 -0.132718,-0.007 -0.263798,-0.032 -0.395696,-0.0483 12.992455,0 25.98573,0 38.982281,0 0,16.72167 0,33.44327 0,50.17317 -26.765654,0 -53.534585,0 -80.3035166,0 0,-12.4001 0,-24.8027 0,-37.20447 z"
       display="none"
       inkscape:connector-curvature="0"
       style="display:none;fill:#000000" />
    <path
       id="path4715"
       d="m 46.685573,979.83789 c -0.104864,0.0164 -0.209728,0.0451 -0.314591,0.0467 -3.973354,0.0393 -7.937695,0.25069 -11.888109,0.68079 -5.701148,0.62099 -11.335936,1.57542 -16.776563,3.45805 -2.311918,0.79958 -4.550104,1.76384 -6.547431,3.20654 -1.3009655,0.93967 -2.4331663,2.03583 -3.0123747,3.57847 -0.1728614,0.45878 -0.2457745,0.95524 -0.3645654,1.4345 0,-4.13146 0,-8.26293 0,-12.40423 12.9670591,-8.2e-4 25.9357561,-8.2e-4 38.9036341,-8.2e-4 z"
       display="none"
       inkscape:connector-curvature="0"
       style="display:none;fill:#000000" />
    <path
       id="path4717"
       d="m 47.792377,982.56271 c 5.787169,0.0139 10.874699,0.31705 15.936014,0.99457 4.777855,0.63983 9.499182,1.54837 14.046008,3.20735 1.995689,0.72831 3.945499,1.5664 5.616765,2.90997 0.546439,0.43912 1.042084,0.97245 1.456623,1.53937 0.603786,0.82416 0.585763,1.7196 0.03932,2.59865 -0.536607,0.86349 -1.295231,1.49759 -2.121852,2.05632 -2.084167,1.40665 -4.405097,2.29881 -6.782555,3.05251 -3.139359,0.99539 -6.345896,1.71795 -9.603226,2.18495 -2.529838,0.3629 -5.065411,0.7078 -7.609177,0.9454 -4.277294,0.3998 -8.570154,0.5292 -12.865472,0.4244 -2.627328,-0.064 -5.257934,-0.1442 -7.877889,-0.3433 -5.395568,-0.4088 -10.745258,-1.1543 -15.98353,-2.56014 -2.716627,-0.72913 -5.379183,-1.61146 -7.851674,-2.9837 -1.070757,-0.59396 -2.084167,-1.27148 -2.886211,-2.21853 -1.06748,-1.26 -1.072396,-2.42743 8.19e-4,-3.67924 0.92575,-1.07977 2.108745,-1.81791 3.351544,-2.4643 2.644533,-1.37634 5.4693,-2.25949 8.348138,-2.97961 4.223224,-1.05683 8.516084,-1.70157 12.84581,-2.12021 4.197827,-0.40635 8.405486,-0.58576 11.940541,-0.56446 z"
       display="none"
       inkscape:connector-curvature="0"
       style="display:none;fill:#000000" />
    <g
       style="font-style:normal;font-weight:normal;font-size:11.2919302px;line-height:125%;font-family:sans-serif;letter-spacing:0px;word-spacing:0px;fill:#d5331e;fill-opacity:1;stroke:none;stroke-width:1px;stroke-linecap:butt;stroke-linejoin:miter;stroke-opacity:1"
       id="text4768"
       transform="translate(-5.9702259e-8,-8.48097)">
      <path
         d="m 12.209813,1044.4272 q 0.101628,-0.073 0.188737,-0.087 0.09437,-0.022 0.145182,-0.022 0.123405,0 0.225032,0.051 0.101627,0.051 0.210514,0.2178 l 0.813019,1.2268 q 0.0363,0.058 0.06533,0.1306 0.0363,0.073 0.0363,0.1162 0,0.167 -0.108886,0.2758 -0.101628,0.1017 -0.225032,0.1815 -0.595246,0.4138 -1.306638,0.6679 -0.704132,0.2468 -1.495374,0.2468 -0.653319,0 -1.2630832,-0.167 -0.6025051,-0.167 -1.1251602,-0.4718 -0.5226551,-0.3122 -0.9582009,-0.7405 -0.4355459,-0.4355 -0.740428,-0.9654 -0.3048822,-0.5299 -0.4791005,-1.1397 -0.1669593,-0.617 -0.1669593,-1.2849 0,-0.6678 0.1669593,-1.2848 0.1742183,-0.617 0.4791005,-1.1397 0.3048821,-0.5299 0.740428,-0.9582 0.4355458,-0.4356 0.9582009,-0.7404 0.5226551,-0.3049 1.1251602,-0.4719 0.6097642,-0.1669 1.2630832,-0.1669 0.791242,0 1.459079,0.2105 0.675096,0.2105 1.263083,0.6243 l -0.02178,-0.022 q 0.1597,0.094 0.254069,0.225 0.09437,0.1234 0.09437,0.3122 0,0.1306 -0.08711,0.2685 l -0.64606,1.0962 q -0.203255,0.3557 -0.493619,0.3557 -0.06533,0 -0.1597,-0.029 -0.09437,-0.036 -0.210514,-0.1161 -0.3194,-0.2105 -0.689614,-0.3412 -0.362955,-0.1379 -0.776723,-0.1379 -0.457324,0 -0.8420557,0.1887 -0.3847322,0.1815 -0.6605779,0.5009 -0.2685867,0.3194 -0.4210277,0.7404 -0.1524411,0.4211 -0.1524411,0.8856 0,0.4791 0.1524411,0.9002 0.152441,0.4137 0.4210277,0.7186 0.2758457,0.3049 0.6605779,0.4864 0.3847317,0.1742 0.8420557,0.1742 0.413768,0 0.776723,-0.1452 0.362955,-0.1452 0.689614,-0.3702 z"
         style="font-style:normal;font-variant:normal;font-weight:normal;font-stretch:normal;font-size:14.51819611px;font-family:COCOGOOSE;-inkscape-font-specification:COCOGOOSE;text-align:end;text-anchor:end;fill:#d5331e;fill-opacity:1"
         id="path5003"
         inkscape:connector-curvature="0" />
      <path
         d="m 14.687775,1042.6632 q 0,-0.6678 0.166959,-1.2848 0.174219,-0.617 0.479101,-1.1397 0.312141,-0.5299 0.740428,-0.9582 0.435546,-0.4356 0.96546,-0.7404 0.529914,-0.3049 1.139678,-0.4719 0.617023,-0.1669 1.284861,-0.1669 0.987237,0 1.85107,0.3702 0.871091,0.3629 1.509892,1.009 0.64606,0.6388 1.016274,1.5099 0.377473,0.8638 0.377473,1.8728 0,0.6679 -0.174219,1.2849 -0.166959,0.6098 -0.4791,1.1397 -0.304882,0.5299 -0.740428,0.9654 -0.428287,0.4283 -0.958201,0.7405 -0.529914,0.3048 -1.139678,0.4718 -0.602506,0.167 -1.263083,0.167 -0.667838,0 -1.284861,-0.167 -0.609764,-0.167 -1.139678,-0.4718 -0.529914,-0.3122 -0.96546,-0.7405 -0.428287,-0.4355 -0.740428,-0.9654 -0.304882,-0.5299 -0.479101,-1.1397 -0.166959,-0.617 -0.166959,-1.2849 z m 2.649571,0 q 0,0.4791 0.145182,0.9002 0.152441,0.4137 0.421027,0.7186 0.275846,0.3049 0.660578,0.4864 0.391992,0.1742 0.878351,0.1742 0.471842,0 0.849315,-0.1742 0.384732,-0.1815 0.646059,-0.4864 0.268587,-0.3049 0.40651,-0.7186 0.145182,-0.4211 0.145182,-0.9002 0,-0.4645 -0.145182,-0.8856 -0.137923,-0.421 -0.40651,-0.7404 -0.261327,-0.3194 -0.646059,-0.5009 -0.377473,-0.1887 -0.849315,-0.1887 -0.486359,0 -0.878351,0.1887 -0.384732,0.1815 -0.660578,0.5009 -0.268586,0.3194 -0.421027,0.7404 -0.145182,0.4211 -0.145182,0.8856 z"
         style="font-style:normal;font-variant:normal;font-weight:normal;font-stretch:normal;font-size:14.51819611px;font-family:COCOGOOSE;-inkscape-font-specification:COCOGOOSE;text-align:end;text-anchor:end;fill:#d5331e;fill-opacity:1"
         id="path5005"
         inkscape:connector-curvature="0" />
      <path
         d="m 25.675213,1038.5836 q 0,-0.1234 0.05081,-0.2323 0.05807,-0.1161 0.137923,-0.1814 0.188736,-0.1235 0.391991,-0.1235 l 1.096124,0 q 0.137923,0 0.217773,0.051 0.07985,0.051 0.130663,0.1306 0.05807,0.08 0.09437,0.1815 0.04355,0.1016 0.101627,0.2033 0.01452,0.029 0.05807,0.1451 0.04355,0.1089 0.09437,0.2468 0.05081,0.1307 0.09437,0.2541 0.05081,0.1162 0.06533,0.1525 0.217773,-0.2396 0.413769,-0.5009 0.203255,-0.2686 0.428287,-0.4936 0.225032,-0.2251 0.500877,-0.3703 0.275846,-0.1451 0.653319,-0.1451 0.391992,0 0.696874,0.058 0.312141,0.058 0.587987,0.1743 0.275845,0.1088 0.544432,0.2831 0.275846,0.1742 0.595246,0.4065 0.500878,0.2686 0.188737,0.7985 l -0.660578,1.1251 q -0.145182,0.2178 -0.355696,0.2686 -0.210514,0.051 -0.457323,-0.065 -0.312142,-0.3049 -0.638801,-0.4501 -0.3194,-0.1524 -0.733169,-0.1524 -0.283105,0 -0.500878,0.08 -0.210513,0.08 -0.384732,0.2251 -0.174218,0.1451 -0.326659,0.3484 -0.152441,0.2033 -0.304882,0.4501 l 0,5.2556 q 0,0.2758 -0.137923,0.421 -0.130664,0.1379 -0.442805,0.1379 l -1.633297,0 q -0.56621,0 -0.56621,-0.5589 l 0,-8.123 z"
         style="font-style:normal;font-variant:normal;font-weight:normal;font-stretch:normal;font-size:14.51819611px;font-family:COCOGOOSE;-inkscape-font-specification:COCOGOOSE;text-align:end;text-anchor:end;fill:#d5331e;fill-opacity:1"
         id="path5007"
         inkscape:connector-curvature="0" />
      <path
         d="m 34.228927,1038.1699 q 0.09437,-0.08 0.195995,-0.1017 0.108887,-0.022 0.203255,-0.022 l 1.096124,0 q 0.130664,0 0.225032,0.051 0.09437,0.043 0.1597,0.1234 0.06533,0.08 0.101627,0.1814 0.04356,0.1017 0.07985,0.2106 l 0.225032,0.9291 q 0.108887,-0.225 0.312142,-0.5081 0.210513,-0.2904 0.529914,-0.5372 0.3194,-0.2541 0.754946,-0.421 0.442805,-0.1742 1.023533,-0.1742 0.827537,0 1.502633,0.3194 0.675096,0.3194 1.146938,0.8711 0.4791,0.5516 0.740428,1.2921 0.261327,0.7331 0.261327,1.5679 l 0,4.7548 q 0,0.2758 -0.123405,0.421 -0.116145,0.1379 -0.377473,0.1379 l -1.676851,0 q -0.312141,0 -0.428287,-0.1016 -0.116146,-0.1089 -0.116146,-0.4138 l 0,-4.7257 q 0,-0.3121 -0.145182,-0.588 -0.137922,-0.2831 -0.370214,-0.4936 -0.232291,-0.2177 -0.529914,-0.3411 -0.290364,-0.1235 -0.595246,-0.1235 -0.261327,0 -0.537173,0.1162 -0.268587,0.1161 -0.500878,0.3267 -0.225032,0.2032 -0.384732,0.4863 -0.152441,0.2759 -0.174218,0.6025 l 0,4.7184 q 0,0.1234 -0.05081,0.2468 -0.04356,0.1234 -0.137923,0.1888 -0.09437,0.058 -0.181477,0.08 -0.07985,0.022 -0.188737,0.022 l -1.640556,0 q -0.312141,0 -0.450064,-0.1524 -0.137923,-0.1525 -0.137923,-0.4065 l 0,-8.123 q 0,-0.1379 0.05807,-0.254 0.06533,-0.1162 0.174218,-0.1815 l -0.04355,0.022 z"
         style="font-style:normal;font-variant:normal;font-weight:normal;font-stretch:normal;font-size:14.51819611px;font-family:COCOGOOSE;-inkscape-font-specification:COCOGOOSE;text-align:end;text-anchor:end;fill:#d5331e;fill-opacity:1"
         id="path5009"
         inkscape:connector-curvature="0" />
      <path
         d="m 45.410204,1038.1771 q 0,-0.6751 0.290364,-1.2703 0.290364,-0.5953 0.776723,-1.0381 0.48636,-0.45 1.117901,-0.7041 0.631542,-0.2613 1.321156,-0.2613 l 0.145182,0 q 0.246809,0 0.377473,0.1524 0.137923,0.1452 0.137923,0.4065 l 0,1.3865 q 0,0.2686 -0.145182,0.4501 -0.137923,0.1742 -0.370214,0.1742 l -0.145182,0 q -0.152441,0 -0.290364,0.058 -0.137923,0.051 -0.246809,0.1451 -0.108887,0.094 -0.174218,0.2251 -0.06533,0.1234 -0.06533,0.2758 l 0,0.8348 1.139678,0 q 0.246809,0 0.377473,0.1379 0.137923,0.1307 0.137923,0.4211 l 0,1.3284 q 0,0.3121 -0.137923,0.4573 -0.130664,0.1452 -0.377473,0.1452 l -1.139678,0 0,5.2048 q 0,0.2758 -0.188737,0.421 -0.181477,0.1379 -0.39925,0.1379 l -1.567965,0 q -0.261328,0 -0.421028,-0.1597 -0.152441,-0.167 -0.152441,-0.3992 l 0,-5.2048 -0.747687,0 q -0.254069,0 -0.413769,-0.1452 -0.152441,-0.1452 -0.152441,-0.4573 l 0,-1.3284 q 0,-0.2904 0.152441,-0.4211 0.1597,-0.1379 0.413769,-0.1379 l 0.747687,0 0,-0.8348 z"
         style="font-style:normal;font-variant:normal;font-weight:normal;font-stretch:normal;font-size:14.51819611px;font-family:COCOGOOSE;-inkscape-font-specification:COCOGOOSE;text-align:end;text-anchor:end;fill:#d5331e;fill-opacity:1"
         id="path5011"
         inkscape:connector-curvature="0" />
      <path
         d="m 50.826855,1035.8615 q 0,-0.2323 0.116146,-0.392 0.116145,-0.1597 0.39925,-0.1597 l 1.778479,0 q 0.07259,0 0.152441,0.043 0.07985,0.036 0.145182,0.1089 0.07259,0.073 0.116146,0.1742 0.05081,0.1017 0.05081,0.2251 l 0,10.8451 q 0,0.2758 -0.1597,0.421 -0.152441,0.1379 -0.39925,0.1379 l -1.684111,0 q -0.283105,0 -0.39925,-0.1379 -0.116146,-0.1452 -0.116146,-0.421 l 0,-10.8451 z"
         style="font-style:normal;font-variant:normal;font-weight:normal;font-stretch:normal;font-size:14.51819611px;font-family:COCOGOOSE;-inkscape-font-specification:COCOGOOSE;text-align:end;text-anchor:end;fill:#d5331e;fill-opacity:1"
         id="path5013"
         inkscape:connector-curvature="0" />
      <path
         d="m 64.823075,1046.7283 q 0,0.1234 -0.04355,0.2396 -0.04355,0.1089 -0.145182,0.1742 -0.07985,0.08 -0.188737,0.1016 -0.108886,0.022 -0.188736,0.022 l -1.430043,0 q -0.152441,0 -0.246809,-0.036 -0.09437,-0.043 -0.152441,-0.1161 -0.05807,-0.073 -0.101627,-0.1743 -0.0363,-0.1088 -0.07985,-0.2322 l -0.210514,-0.5445 q -0.195996,0.196 -0.428287,0.421 -0.232291,0.2178 -0.515396,0.4066 -0.275846,0.1887 -0.602505,0.3121 -0.32666,0.1307 -0.696874,0.1307 -0.660578,0 -1.270342,-0.167 -0.602505,-0.167 -1.132419,-0.4718 -0.522655,-0.3122 -0.950942,-0.7405 -0.428287,-0.4355 -0.740428,-0.9654 -0.304882,-0.5299 -0.471841,-1.1397 -0.16696,-0.617 -0.16696,-1.2849 0,-1.009 0.370214,-1.8728 0.370214,-0.8711 1.009015,-1.5099 0.638801,-0.6461 1.502633,-1.009 0.863833,-0.3702 1.85107,-0.3702 0.450064,0 0.827538,0.1379 0.377473,0.1307 0.682355,0.3484 0.312141,0.2178 0.55895,0.4936 0.254069,0.2759 0.450064,0.559 l 0.283105,-0.8784 q 0.07259,-0.1814 0.116146,-0.2903 0.05081,-0.1162 0.101627,-0.167 0.05807,-0.058 0.137923,-0.073 0.07985,-0.022 0.225032,-0.022 l 1.081606,0 q 0.07985,0 0.188736,0.022 0.108887,0.022 0.188737,0.1017 0.101627,0.08 0.145182,0.1814 0.04355,0.1017 0.04355,0.2323 l 0,8.181 z m -7.150211,-4.0651 q 0,0.4791 0.145182,0.9002 0.152441,0.4137 0.428287,0.7186 0.275845,0.3049 0.660577,0.4864 0.391992,0.1742 0.863833,0.1742 0.48636,0 0.900128,-0.1742 0.421028,-0.1815 0.72591,-0.4864 0.312141,-0.3049 0.48636,-0.7186 0.174218,-0.4211 0.174218,-0.9002 0,-0.4645 -0.174218,-0.8856 -0.174219,-0.421 -0.48636,-0.7404 -0.304882,-0.3194 -0.72591,-0.5009 -0.413768,-0.1887 -0.900128,-0.1887 -0.471841,0 -0.863833,0.1887 -0.384732,0.1815 -0.660577,0.5009 -0.275846,0.3194 -0.428287,0.7404 -0.145182,0.4211 -0.145182,0.8856 z"
         style="font-style:normal;font-variant:normal;font-weight:normal;font-stretch:normal;font-size:14.51819611px;font-family:COCOGOOSE;-inkscape-font-specification:COCOGOOSE;text-align:end;text-anchor:end;fill:#d5331e;fill-opacity:1"
         id="path5015"
         inkscape:connector-curvature="0" />
      <path
         d="m 66.56435,1035.8615 q 0,-0.1234 0.0073,-0.2251 0.0073,-0.1016 0.05807,-0.1742 0.05807,-0.073 0.174219,-0.1089 0.116145,-0.043 0.326659,-0.043 l 1.734924,0 q 0.137923,0 0.225033,0.051 0.09437,0.043 0.145181,0.1161 0.05807,0.073 0.07259,0.1597 0.02178,0.08 0.02178,0.1525 l 0,5.3717 2.613275,-2.9036 q 0.188737,-0.2106 0.450064,-0.2106 l 2.228543,0 q 0.399251,0 0.399251,0.3122 0,0.08 -0.02904,0.1307 -0.02178,0.051 -0.101627,0.1451 l -2.983489,3.1505 3.752953,4.82 -0.01452,0 q 0.09437,0.094 0.130664,0.196 0.04355,0.094 0.04355,0.1742 0,0.167 -0.09437,0.2323 -0.08711,0.058 -0.268587,0.058 l -2.453575,0 q -0.123404,0 -0.232291,-0.094 -0.108886,-0.094 -0.23955,-0.2831 l -2.373725,-3.3609 -0.80576,0.8348 0,2.3447 q 0,0.058 -0.02178,0.1524 -0.01452,0.094 -0.07259,0.1887 -0.05081,0.087 -0.145182,0.1525 -0.09437,0.065 -0.24681,0.065 l -1.822033,0 q -0.130664,0 -0.225032,-0.065 -0.09437,-0.073 -0.152441,-0.1597 -0.05081,-0.087 -0.07985,-0.1597 -0.02178,-0.08 -0.02178,-0.094 l 0,-10.9249 z"
         style="font-style:normal;font-variant:normal;font-weight:normal;font-stretch:normal;font-size:14.51819611px;font-family:COCOGOOSE;-inkscape-font-specification:COCOGOOSE;text-align:end;text-anchor:end;fill:#d5331e;fill-opacity:1"
         id="path5017"
         inkscape:connector-curvature="0" />
      <path
         d="m 84.552851,1046.1621 q -0.638801,0.588 -1.437302,0.9219 -0.7985,0.3267 -1.691369,0.3267 -0.994497,0 -1.880107,-0.363 -0.88561,-0.3629 -1.553447,-1.0017 -0.667837,-0.6461 -1.059828,-1.5172 -0.391991,-0.8711 -0.391991,-1.8946 0,-0.6388 0.152441,-1.234 0.1597,-0.6026 0.442805,-1.1252 0.290364,-0.5227 0.696873,-0.9582 0.413769,-0.4428 0.921905,-0.755 0.508137,-0.3121 1.103383,-0.4863 0.595246,-0.1742 1.255824,-0.1742 0.602505,0 1.168715,0.1597 0.56621,0.1597 1.059828,0.45 0.500878,0.2904 0.914647,0.6969 0.413768,0.4065 0.711391,0.8929 0.297623,0.4791 0.457324,1.0308 0.166959,0.5444 0.166959,1.1251 0,0.3775 -0.01452,0.617 -0.0073,0.2396 -0.108887,0.3848 -0.101627,0.1379 -0.341177,0.196 -0.232292,0.051 -0.689615,0.051 l -5.22655,0 q 0.07259,0.4646 0.290364,0.7767 0.225032,0.3122 0.515396,0.5009 0.290363,0.1815 0.617023,0.2613 0.326659,0.08 0.617023,0.08 0.261328,0 0.537173,-0.051 0.275846,-0.058 0.529915,-0.1452 0.261327,-0.094 0.471841,-0.2105 0.217773,-0.1234 0.348437,-0.2541 0.116145,-0.094 0.195995,-0.1379 0.08711,-0.051 0.181478,-0.051 0.09437,0 0.188736,0.065 0.101628,0.065 0.225032,0.1887 l 0.769465,0.8711 q 0.07985,0.094 0.101627,0.1742 0.02178,0.073 0.02178,0.1525 0,0.1452 -0.07985,0.254 -0.07985,0.1017 -0.188736,0.1815 z m -3.491626,-6.0468 q -0.283105,0 -0.551692,0.1161 -0.261327,0.1089 -0.493618,0.2977 -0.232292,0.1887 -0.421028,0.4282 -0.181478,0.2396 -0.297623,0.4864 l 3.709399,0 q -0.152441,-0.2831 -0.333919,-0.5226 -0.174218,-0.2396 -0.406509,-0.4211 -0.225032,-0.1815 -0.522655,-0.2831 -0.290364,-0.1016 -0.682355,-0.1016 z"
         style="font-style:normal;font-variant:normal;font-weight:normal;font-stretch:normal;font-size:14.51819611px;font-family:COCOGOOSE;-inkscape-font-specification:COCOGOOSE;text-align:end;text-anchor:end;fill:#d5331e;fill-opacity:1"
         id="path5019"
         inkscape:connector-curvature="0" />
      <path
         d="m 88.501574,1044.3982 q 0.195995,0.196 0.421028,0.3339 0.232291,0.1306 0.442805,0.2178 0.210513,0.08 0.370214,0.1161 0.1597,0.036 0.217772,0.036 0.137923,0 0.348437,-0.01 0.217773,-0.014 0.413769,-0.065 0.195995,-0.058 0.333918,-0.1815 0.145182,-0.1234 0.145182,-0.3484 0,-0.2033 -0.07985,-0.3194 -0.07985,-0.1234 -0.232291,-0.2033 -0.152441,-0.087 -0.377473,-0.1524 -0.217773,-0.065 -0.493619,-0.1525 -0.871092,-0.2322 -1.437301,-0.5589 -0.56621,-0.3267 -0.900128,-0.7259 -0.32666,-0.4065 -0.457324,-0.8711 -0.130663,-0.4646 -0.130663,-0.98 0,-0.6025 0.23955,-1.0961 0.23955,-0.4936 0.682355,-0.8421 0.442805,-0.3557 1.059829,-0.5444 0.617023,-0.196 1.371969,-0.196 0.457323,0 0.856574,0.08 0.39925,0.073 0.762205,0.2395 0.362955,0.1597 0.704132,0.421 0.348437,0.2541 0.689615,0.6098 0.123404,0.1452 0.123404,0.2758 0.0073,0.1235 -0.1597,0.2686 -0.283105,0.2323 -0.544432,0.4574 -0.254069,0.225 -0.529914,0.5008 -0.08711,0.073 -0.174219,0.094 -0.08711,0.014 -0.166959,-0.01 -0.07985,-0.022 -0.152441,-0.072 -0.07259,-0.051 -0.130664,-0.1234 -0.254068,-0.2832 -0.580728,-0.3775 -0.326659,-0.1016 -0.609764,-0.1016 -0.355696,0 -0.566209,0.1234 -0.210514,0.1234 -0.195996,0.3774 0.01452,0.1888 0.137923,0.2977 0.130664,0.1016 0.312141,0.1669 0.188737,0.065 0.391991,0.1089 0.210514,0.036 0.384732,0.087 0.653319,0.2105 1.197752,0.4573 0.544432,0.2468 0.943682,0.6098 0.399251,0.3557 0.617024,0.8566 0.225032,0.5008 0.225032,1.2195 0,0.7186 -0.290364,1.2849 -0.283105,0.5662 -0.783983,0.9509 -0.500877,0.3847 -1.190492,0.588 -0.682355,0.2032 -1.473597,0.2032 -0.450064,0 -0.914646,-0.08 -0.464582,-0.08 -0.900128,-0.2541 -0.435546,-0.1815 -0.827537,-0.4573 -0.391992,-0.2831 -0.696874,-0.6824 -0.07985,-0.1016 -0.123404,-0.2105 -0.0363,-0.1161 -0.0363,-0.225 0.0073,-0.1089 0.04355,-0.196 0.04355,-0.094 0.130663,-0.1597 l 0.936424,-0.9364 q 0.174218,-0.1452 0.304882,-0.1017 0.137923,0.044 0.348437,0.2469 z"
         style="font-style:normal;font-variant:normal;font-weight:normal;font-stretch:normal;font-size:14.51819611px;font-family:COCOGOOSE;-inkscape-font-specification:COCOGOOSE;text-align:end;text-anchor:end;fill:#d5331e;fill-opacity:1"
         id="path5021"
         inkscape:connector-curvature="0" />
    </g>
  </g>
</svg>
